<?xml version="1.0" encoding="UTF-8"?>
<svg id="Layer_1" xmlns="http://www.w3.org/2000/svg" xmlns:xlink="http://www.w3.org/1999/xlink" version="1.1" viewBox="0 0 799.7 463.3">
  <!-- Generator: Adobe Illustrator 30.4.0, SVG Export Plug-In . SVG Version: 2.1.4 Build 226)  -->
  <defs>
    <style>
      .st0, .st1, .st2, .st3, .st4 {
        stroke: #fee27a;
      }

      .st0, .st1, .st3, .st4, .st5 {
        fill: none;
      }

      .st0, .st4, .st5 {
        stroke-linecap: round;
      }

      .st2 {
        fill: #fee27a;
      }

      .st2, .st3 {
        stroke-miterlimit: 4;
        stroke-width: 1px;
      }

      .st6 {
        isolation: isolate;
      }

      .st4 {
        stroke-width: 3px;
      }

      .st5 {
        stroke: #fff;
      }
    </style>
  </defs>
  <image class="st6" width="720" height="960" transform="translate(-317.6 56.1) scale(.4)" xlink:href="../../../../../../Desktop/703665773_1455749919189882_3847035493174880024_n.jpg"/>
  <path class="st1" d="M745.9,181.1c1.4-.9-34.2,14.8-58.8,12.8"/>
  <line class="st1" x1="745.9" y1="181.2" x2="745.9" y2="282.1"/>
  <line class="st1" x1="690.6" y1="194.1" x2="690.6" y2="269.3"/>
  <path class="st1" d="M745.9,282.1c1.4.9-34.2-14.8-58.8-12.8"/>
  <path class="st1" d="M635.3,282.2c-1.4.9,34.2-14.8,58.8-12.8"/>
  <line class="st1" x1="635.2" y1="282" x2="635.2" y2="181.1"/>
  <path class="st1" d="M635.3,181.2c-1.4-.9,34.2,14.8,58.8,12.8"/>
  <line class="st0" x1="656.7" y1="249.7" x2="656.7" y2="217.1"/>
  <line class="st0" x1="678.4" y1="239.5" x2="678.4" y2="206.9"/>
  <path class="st0" d="M656.7,217.1l21.8-10.9"/>
  <ellipse class="st3" cx="671.9" cy="241.2" rx="6.7" ry="4.5" transform="translate(-42 244.3) rotate(-20)"/>
  <ellipse class="st3" cx="650.1" cy="251.4" rx="6.7" ry="4.5" transform="translate(-46.8 237.5) rotate(-20)"/>
  <ellipse class="st3" cx="728.1" cy="249.3" rx="6.7" ry="4.5" transform="translate(-41.4 264) rotate(-20)"/>
  <ellipse class="st3" cx="706.4" cy="240.6" rx="6.7" ry="4.5" transform="translate(-39.7 256.1) rotate(-20)"/>
  <line class="st1" x1="712.9" y1="238.7" x2="712.9" y2="206.1"/>
  <line class="st1" x1="734.7" y1="247.8" x2="734.7" y2="215.2"/>
  <path class="st0" d="M712.9,206.1l21.8,9.1"/>
  <line class="st0" x1="142.9" y1="601.2" x2="152.1" y2="592"/>
  <line class="st0" x1="130.8" y1="599.3" x2="140" y2="590.1"/>
  <line class="st0" x1="130.3" y1="606.8" x2="150.5" y2="586.6"/>
  <rect class="st0" x="95.8" y="520" width="73.9" height="107.9"/>
  <rect class="st0" x="101.1" y="525.1" width="63.3" height="97.4"/>
  <g>
    <rect class="st0" x="413.5" y="216.8" width="81" height="30.2"/>
    <rect class="st0" x="372.8" y="247" width="81" height="30.2"/>
    <rect class="st0" x="332.5" y="216.8" width="81" height="30.2"/>
    <rect class="st0" x="372.8" y="186.6" width="81" height="30.2"/>
  </g>
  <line class="st0" x1="475.8" y1="186.6" x2="351.3" y2="186.6"/>
  <line class="st0" x1="475.8" y1="277.2" x2="351.3" y2="277.2"/>
  <line class="st0" x1="508.8" y1="247" x2="318.3" y2="247"/>
  <line class="st0" x1="508.8" y1="216.8" x2="318.3" y2="216.8"/>
  <path class="st1" d="M1674.9,181.1c1.4-.9-34.2,14.8-58.8,12.8"/>
  <line class="st1" x1="1674.9" y1="181.2" x2="1674.9" y2="282.1"/>
  <line class="st1" x1="1619.6" y1="194.1" x2="1619.6" y2="269.3"/>
  <path class="st1" d="M1674.9,282.1c1.4.9-34.2-14.8-58.8-12.8"/>
  <path class="st1" d="M1564.3,282.2c-1.4.9,34.2-14.8,58.8-12.8"/>
  <line class="st1" x1="1564.2" y1="282" x2="1564.2" y2="181.1"/>
  <path class="st1" d="M1564.3,181.2c-1.4-.9,34.2,14.8,58.8,12.8"/>
  <g>
    <line class="st0" x1="1585.7" y1="249.7" x2="1585.7" y2="217.1"/>
    <line class="st0" x1="1607.4" y1="239.5" x2="1607.4" y2="206.9"/>
    <path class="st0" d="M1585.7,217.1l21.8-10.9"/>
    <ellipse class="st2" cx="1600.8" cy="241.2" rx="6.7" ry="4.5" transform="translate(14 562.1) rotate(-20)"/>
    <ellipse class="st2" cx="1579.2" cy="251.5" rx="6.7" ry="4.5" transform="translate(9.2 555.3) rotate(-20)"/>
  </g>
  <g>
    <ellipse class="st2" cx="1657.1" cy="249.3" rx="6.7" ry="4.5" transform="translate(14.7 581.8) rotate(-20)"/>
    <ellipse class="st2" cx="1635.4" cy="240.6" rx="6.7" ry="4.5" transform="translate(16.4 573.8) rotate(-20)"/>
    <line class="st1" x1="1641.9" y1="238.7" x2="1641.9" y2="206.1"/>
    <line class="st1" x1="1663.7" y1="247.8" x2="1663.7" y2="215.2"/>
    <path class="st0" d="M1641.9,206.1l21.8,9.1"/>
  </g>
  <line class="st0" x1="1105.9" y1="260.6" x2="1115.1" y2="251.4"/>
  <line class="st0" x1="1093.9" y1="258.6" x2="1103.1" y2="249.5"/>
  <line class="st0" x1="1093.4" y1="266.1" x2="1113.6" y2="245.9"/>
  <rect class="st0" x="1014.7" y="185.8" width="115.2" height="93"/>
  <rect class="st0" x="1021.9" y="185.7" width="115.2" height="93"/>
  <g>
    <rect class="st0" x="1342.6" y="216.8" width="81" height="30.2"/>
    <rect class="st0" x="1220.8" y="247" width="81" height="30.2"/>
    <rect class="st0" x="1301.8" y="247" width="81" height="30.2"/>
    <rect class="st0" x="1382.9" y="247" width="81" height="30.2"/>
    <rect class="st0" x="1261.6" y="216.8" width="81" height="30.2"/>
    <rect class="st0" x="1180.6" y="216.8" width="81" height="30.2"/>
    <rect class="st0" x="1423.6" y="216.8" width="81" height="30.2"/>
    <rect class="st0" x="1220.8" y="186.6" width="81" height="30.2"/>
    <rect class="st0" x="1301.8" y="186.6" width="81" height="30.2"/>
    <rect class="st0" x="1382.9" y="186.6" width="81" height="30.2"/>
  </g>
  <line class="st0" x1="1480" y1="186.6" x2="1205.2" y2="186.6"/>
  <line class="st0" x1="1480" y1="277.2" x2="1205.2" y2="277.2"/>
  <line class="st0" x1="1521" y1="216.8" x2="1164.2" y2="216.8"/>
  <line class="st0" x1="1521" y1="247" x2="1164.2" y2="247"/>
  <path class="st0" d="M95.8,539.7"/>
  <path class="st0" d="M95.1,542.7c-.4.6-1.1.8-1.8.7s-1.2-.8-1.3-1.4v-.5c.2-.3.6-.4.9-.6.3-.2.5-.7.5-1.1.2-1,.3-2,.4-3,0-.8,0-1.5-.4-2.2s-1-1.2-1.7-1.3h-1c-.7,0-1.2-.6-1.3-1.2s.2-1.3.8-1.6c-1.4-1.6-2.6-3.3-3.6-5.2-.5,0-.9.3-1,.8-.8.1-1.5-.6-1.6-1.4s.3-1.6.8-2.2,1.2-1.2,1.9-1.1c.4,0,.9.2,1.1-.2.2-.3,0-.7-.3-.8s-.6-.2-.9-.4c-.8-.5-.5-1.8-.2-2.7.3-.7.5-1.4,1-2s1.3-.9,2-.7c-.5-.3-.4-1.1,0-1.6s1-.7,1.4-1.1c.5-.5.8-1.2,1.2-1.9s1.2-1.1,1.9-.9,1.2,1.1,1.8.8c.2,0,.4-.2.5-.4.7-.5,1.8-.6,2.6-.2,0,.6-.1,1.2-.2,1.8h-.6c0,.5.5.8,1,.9s1,.1,1.4.3c.4.1.8.3,1.1.6.8.5,1.7,1,2.5,1.5.3-.5,1-.8,1.6-.8s1.2.5,1.4,1.1c-.4.7,0,1.7.6,2.2s1.5.6,2.3.5c1.6-.1,3.1-.9,4.2-2.1.9-.2,2.2,0,2.8.7,0,.1.2.3.3.3h.4c.5,0,1-.1,1.5,0s1,.3,1.3.7c.2.2.2.5.4.8.6,1.2,1.9,1.9,3.2,1.7"/>
  <path class="st0" d="M95.1,605c-.4-.6-1.1-.8-1.8-.7s-1.2.8-1.3,1.4v.5c.2.3.6.4.9.6.3.2.5.7.5,1.1.2,1,.3,2,.4,3,0,.8,0,1.5-.4,2.2s-1,1.2-1.7,1.3h-1c-.7,0-1.2.6-1.3,1.2s.2,1.3.8,1.6c-1.4,1.6-2.6,3.3-3.6,5.2-.5,0-.9-.3-1-.8-.8-.1-1.5.6-1.6,1.4s.3,1.6.8,2.2,1.2,1.2,1.9,1.1c.4,0,.9-.2,1.1.2.2.3,0,.7-.3.8s-.6.2-.9.4c-.8.5-.5,1.8-.2,2.7.3.7.5,1.4,1,2s1.3.9,2,.7c-.5.3-.4,1.1,0,1.6s1,.7,1.4,1.1c.5.5.8,1.2,1.2,1.9s1.2,1.1,1.9.9,1.2-1.1,1.8-.8c.2,0,.4.2.5.4.7.5,1.8.6,2.6.2,0-.6-.1-1.2-.2-1.8h-.6c0-.5.5-.8,1-.9s1-.1,1.4-.3c.4-.1.8-.3,1.1-.6.8-.5,1.7-1,2.5-1.5.3.5,1,.8,1.6.8s1.2-.5,1.4-1.1c-.4-.7,0-1.7.6-2.2s1.5-.6,2.3-.5c1.6.1,3.1.9,4.2,2.1.9.2,2.2,0,2.8-.7,0-.1.2-.3.3-.3h.4c.5,0,1,.1,1.5,0s1-.3,1.3-.7c.2-.2.2-.5.4-.8.6-1.2,1.9-1.9,3.2-1.7"/>
  <path class="st0" d="M170.4,542.7c.4.6,1.1.8,1.8.7s1.2-.8,1.3-1.4v-.5c-.2-.3-.6-.4-.9-.6-.3-.2-.5-.7-.5-1.1-.2-1-.3-2-.4-3,0-.8,0-1.5.4-2.2s1-1.2,1.7-1.3h1c.7,0,1.2-.6,1.3-1.2s-.2-1.3-.8-1.6c1.4-1.6,2.6-3.3,3.6-5.2.5,0,.9.3,1,.8.8.1,1.5-.6,1.6-1.4s-.3-1.6-.8-2.2-1.2-1.2-1.9-1.1c-.4,0-.9.2-1.1-.2-.2-.3,0-.7.3-.8s.6-.2.9-.4c.8-.5.5-1.8.2-2.7-.3-.7-.5-1.4-1-2s-1.3-.9-2-.7c.5-.3.4-1.1,0-1.6s-1-.7-1.4-1.1-.8-1.2-1.2-1.9-1.2-1.1-1.9-.9-1.2,1.1-1.8.8c-.2,0-.4-.2-.5-.4-.7-.5-1.8-.6-2.6-.2,0,.6.1,1.2.2,1.8h.6c0,.5-.5.8-1,.9s-1,.1-1.4.3c-.4.1-.8.3-1.1.6-.8.5-1.7,1-2.5,1.5-.3-.5-1-.8-1.6-.8s-1.2.5-1.4,1.1c.4.7,0,1.7-.6,2.2s-1.5.6-2.3.5c-1.6-.1-3.1-.9-4.2-2.1-.9-.2-2.2,0-2.8.7,0,.1-.2.3-.3.3h-.4c-.5,0-1-.1-1.5,0s-1,.3-1.3.7c-.2.2-.2.5-.4.8-.6,1.2-1.9,1.9-3.2,1.7"/>
  <path class="st0" d="M170.4,605c.4-.6,1.1-.8,1.8-.7s1.2.8,1.3,1.4v.5c-.2.3-.6.4-.9.6-.3.2-.5.7-.5,1.1-.2,1-.3,2-.4,3,0,.8,0,1.5.4,2.2s1,1.2,1.7,1.3h1c.7,0,1.2.6,1.3,1.2s-.2,1.3-.8,1.6c1.4,1.6,2.6,3.3,3.6,5.2.5,0,.9-.3,1-.8.8-.1,1.5.6,1.6,1.4s-.3,1.6-.8,2.2-1.2,1.2-1.9,1.1c-.4,0-.9-.2-1.1.2-.2.3,0,.7.3.8s.6.2.9.4c.8.5.5,1.8.2,2.7-.3.7-.5,1.4-1,2s-1.3.9-2,.7c.5.3.4,1.1,0,1.6s-1,.7-1.4,1.1-.8,1.2-1.2,1.9-1.2,1.1-1.9.9-1.2-1.1-1.8-.8c-.2,0-.4.2-.5.4-.7.5-1.8.6-2.6.2,0-.6.1-1.2.2-1.8h.6c0-.5-.5-.8-1-.9s-1-.1-1.4-.3c-.4-.1-.8-.3-1.1-.6-.8-.5-1.7-1-2.5-1.5-.3.5-1,.8-1.6.8s-1.2-.5-1.4-1.1c.4-.7,0-1.7-.6-2.2s-1.5-.6-2.3-.5c-1.6.1-3.1.9-4.2,2.1-.9.2-2.2,0-2.8-.7,0-.1-.2-.3-.3-.3h-.4c-.5,0-1,.1-1.5,0s-1-.3-1.3-.7c-.2-.2-.2-.5-.4-.8-.6-1.2-1.9-1.9-3.2-1.7"/>
  <line class="st0" x1="440.1" y1="108" x2="449.3" y2="98.8"/>
  <line class="st0" x1="428" y1="106" x2="437.2" y2="96.8"/>
  <line class="st0" x1="427.5" y1="113.5" x2="447.7" y2="93.3"/>
  <rect class="st0" x="392.9" y="26.7" width="73.9" height="107.9"/>
  <rect class="st0" x="398.3" y="32" width="63.3" height="97.4"/>
  <path class="st0" d="M393,46.4"/>
  <path class="st0" d="M392.3,49.5c-.4.6-1.1.8-1.8.7s-1.2-.8-1.3-1.4v-.5c.2-.3.6-.4.9-.6.3-.2.5-.7.5-1.1.2-1,.3-2,.4-3,0-.8,0-1.5-.4-2.2s-1-1.2-1.7-1.3h-1c-.7,0-1.2-.6-1.3-1.2s.2-1.3.8-1.6c-1.4-1.6-2.6-3.3-3.6-5.2-.5,0-.9.3-1,.8-.8,0-1.5-.6-1.6-1.4s.3-1.6.8-2.2,1.2-1.2,1.9-1.1c.4,0,.9.2,1.1-.2.2-.3,0-.7-.3-.8s-.6-.2-.9-.4c-.8-.5-.5-1.8-.2-2.7.3-.7.5-1.4,1-2s1.3-.9,2-.7c-.5-.3-.4-1.1,0-1.6s1-.7,1.4-1.1c.5-.5.8-1.2,1.2-1.9s1.2-1.1,1.9-.9c.7.2,1.2,1.1,1.8.8.2,0,.4-.2.5-.4.7-.5,1.8-.6,2.6-.2,0,.6-.1,1.2-.2,1.8h-.6c0,.5.5.8,1,.9s1,.1,1.4.3c.4.1.8.3,1.1.6.8.5,1.7,1,2.5,1.5.3-.5,1-.8,1.6-.8s1.2.5,1.4,1.1c-.4.7,0,1.7.6,2.2s1.5.6,2.3.5c1.6-.1,3.1-.9,4.2-2.1.9-.2,2.2,0,2.8.7,0,.1.2.3.3.3h.4c.5,0,1-.1,1.5,0s1,.3,1.3.7c.2.2.2.5.4.8.6,1.2,1.9,1.9,3.2,1.7"/>
  <path class="st0" d="M467.6,49.4c.4.6,1.1.8,1.8.7s1.2-.8,1.3-1.4v-.5c-.2-.3-.6-.4-.9-.6-.3-.2-.5-.7-.5-1.1-.2-1-.3-2-.4-3,0-.8,0-1.5.4-2.2s1-1.2,1.7-1.3h1c.7,0,1.2-.6,1.3-1.2s-.2-1.3-.8-1.6c1.4-1.6,2.6-3.3,3.6-5.2.5,0,.9.3,1,.8.8,0,1.5-.6,1.6-1.4s-.3-1.6-.8-2.2-1.2-1.2-1.9-1.1c-.4,0-.9.2-1.1-.2-.2-.3,0-.7.3-.8s.6-.2.9-.4c.8-.5.5-1.8.2-2.7-.3-.7-.5-1.4-1-2s-1.3-.9-2-.7c.5-.3.4-1.1,0-1.6s-1-.7-1.4-1.1c-.5-.5-.8-1.2-1.2-1.9s-1.2-1.1-1.9-.9c-.7.2-1.2,1.1-1.8.8-.2,0-.4-.2-.5-.4-.7-.5-1.8-.6-2.6-.2,0,.6.1,1.2.2,1.8h.6c0,.5-.5.8-1,.9s-1,.1-1.4.3c-.4.1-.8.3-1.1.6-.8.5-1.7,1-2.5,1.5-.3-.5-1-.8-1.6-.8s-1.2.5-1.4,1.1c.4.7,0,1.7-.6,2.2s-1.5.6-2.3.5c-1.6-.1-3.1-.9-4.2-2.1-.9-.2-2.2,0-2.8.7,0,.1-.2.3-.3.3h-.4c-.5,0-1-.1-1.5,0s-1,.3-1.3.7c-.2.2-.2.5-.4.8-.6,1.2-1.9,1.9-3.2,1.7"/>
  <path class="st0" d="M392.3,111.7c-.4-.6-1.1-.8-1.8-.7s-1.2.8-1.3,1.4v.5c.2.3.6.4.9.6s.5.7.5,1.1c.2,1,.3,2,.4,3,0,.8,0,1.5-.4,2.2s-1,1.2-1.7,1.3h-1c-.7,0-1.2.6-1.3,1.2s.2,1.3.8,1.6c-1.4,1.6-2.6,3.3-3.6,5.2-.5,0-.9-.3-1-.8-.8-.1-1.5.6-1.6,1.4s.3,1.6.8,2.2c.5.6,1.2,1.2,1.9,1.1.4,0,.9-.2,1.1.2.2.3,0,.7-.3.8s-.6.2-.9.4c-.8.5-.5,1.8-.2,2.7.3.7.5,1.4,1,2s1.3.9,2,.7c-.5.3-.4,1.1,0,1.6s1,.7,1.4,1.1c.5.5.8,1.2,1.2,1.9s1.2,1.1,1.9.9c.7-.2,1.2-1.1,1.8-.8.2,0,.4.2.5.4.7.5,1.8.6,2.6.2,0-.6-.1-1.2-.2-1.8h-.6c0-.5.5-.8,1-.9s1-.1,1.4-.3c.4-.1.8-.3,1.1-.6.8-.5,1.7-1,2.5-1.5.3.5,1,.8,1.6.8s1.2-.5,1.4-1.1c-.4-.7,0-1.7.6-2.2s1.5-.6,2.3-.5c1.6.1,3.1.9,4.2,2.1.9.2,2.2,0,2.8-.7,0-.1.2-.3.3-.3h.4c.5,0,1,.1,1.5,0s1-.3,1.3-.7c.2-.2.2-.5.4-.8.6-1.2,1.9-1.9,3.2-1.7"/>
  <path class="st0" d="M467.6,111.7c.4-.6,1.1-.8,1.8-.7s1.2.8,1.3,1.4v.5c-.2.3-.6.4-.9.6s-.5.7-.5,1.1c-.2,1-.3,2-.4,3,0,.8,0,1.5.4,2.2s1,1.2,1.7,1.3h1c.7,0,1.2.6,1.3,1.2s-.2,1.3-.8,1.6c1.4,1.6,2.6,3.3,3.6,5.2.5,0,.9-.3,1-.8.8-.1,1.5.6,1.6,1.4s-.3,1.6-.8,2.2c-.5.6-1.2,1.2-1.9,1.1-.4,0-.9-.2-1.1.2-.2.3,0,.7.3.8s.6.2.9.4c.8.5.5,1.8.2,2.7-.3.7-.5,1.4-1,2s-1.3.9-2,.7c.5.3.4,1.1,0,1.6s-1,.7-1.4,1.1c-.5.5-.8,1.2-1.2,1.9s-1.2,1.1-1.9.9c-.7-.2-1.2-1.1-1.8-.8-.2,0-.4.2-.5.4-.7.5-1.8.6-2.6.2,0-.6.1-1.2.2-1.8h.6c0-.5-.5-.8-1-.9s-1-.1-1.4-.3c-.4-.1-.8-.3-1.1-.6-.8-.5-1.7-1-2.5-1.5-.3.5-1,.8-1.6.8s-1.2-.5-1.4-1.1c.4-.7,0-1.7-.6-2.2s-1.5-.6-2.3-.5c-1.6.1-3.1.9-4.2,2.1-.9.2-2.2,0-2.8-.7,0-.1-.2-.3-.3-.3h-.4c-.5,0-1,.1-1.5,0s-1-.3-1.3-.7c-.2-.2-.2-.5-.4-.8-.6-1.2-1.9-1.9-3.2-1.7"/>
  <line class="st0" x1="113.8" y1="-158.1" x2="122.9" y2="-167.3"/>
  <line class="st0" x1="101.7" y1="-160.1" x2="110.9" y2="-169.3"/>
  <line class="st0" x1="101.2" y1="-152.6" x2="121.4" y2="-172.8"/>
  <rect class="st4" x="68.3" y="-239.2" width="70.3" height="107.1"/>
  <rect class="st0" x="71.9" y="-235.9" width="63.3" height="100.6"/>
  <path class="st0" d="M66.7-219.7"/>
  <path class="st0" d="M65.9-216.6c-.4.6-1.1.8-1.8.7s-1.2-.8-1.3-1.4v-.5c.2-.3.6-.4.9-.6.3-.2.5-.7.5-1.1.2-1,.3-2,.4-3,0-.8,0-1.5-.4-2.2s-1-1.2-1.7-1.3h-1c-.7,0-1.2-.6-1.3-1.2s.2-1.3.8-1.6c-1.4-1.6-2.6-3.3-3.6-5.2-.5,0-.9.3-1,.8-.8,0-1.5-.6-1.6-1.4s.3-1.6.8-2.2,1.2-1.2,1.9-1.1c.4,0,.9.2,1.1-.2.2-.3,0-.7-.3-.8s-.6-.2-.9-.4c-.8-.5-.5-1.8-.2-2.7.3-.7.5-1.4,1-2s1.3-.9,2-.7c-.5-.3-.4-1.1,0-1.6s1-.7,1.4-1.1c.5-.5.8-1.2,1.2-1.9s1.2-1.1,1.9-.9c.7.2,1.2,1.1,1.8.8.2,0,.4-.2.5-.4.7-.5,1.8-.6,2.6-.2,0,.6-.1,1.2-.2,1.8h-.6c0,.5.5.8,1,.9s1,.1,1.4.3c.4.1.8.3,1.1.6.8.5,1.7,1,2.5,1.5.3-.5,1-.8,1.6-.8s1.2.5,1.4,1.1c-.4.7,0,1.7.6,2.2s1.5.6,2.3.5c1.6-.1,3.1-.9,4.2-2.1.9-.2,2.2,0,2.8.7,0,.1.2.3.3.3h.4c.5,0,1-.1,1.5,0s1,.3,1.3.7c.2.2.2.5.4.8.6,1.2,1.9,1.9,3.2,1.7"/>
  <path class="st0" d="M141.3-216.7c.4.6,1.1.8,1.8.7s1.2-.8,1.3-1.4v-.5c-.2-.3-.6-.4-.9-.6-.3-.2-.5-.7-.5-1.1-.2-1-.3-2-.4-3,0-.8,0-1.5.4-2.2s1-1.2,1.7-1.3h1c.7,0,1.2-.6,1.3-1.2s-.2-1.3-.8-1.6c1.4-1.6,2.6-3.3,3.6-5.2.5,0,.9.3,1,.8.8,0,1.5-.6,1.6-1.4s-.3-1.6-.8-2.2-1.2-1.2-1.9-1.1c-.4,0-.9.2-1.1-.2-.2-.3,0-.7.3-.8s.6-.2.9-.4c.8-.5.5-1.8.2-2.7-.3-.7-.5-1.4-1-2s-1.3-.9-2-.7c.5-.3.4-1.1,0-1.6s-1-.7-1.4-1.1c-.5-.5-.8-1.2-1.2-1.9s-1.2-1.1-1.9-.9c-.7.2-1.2,1.1-1.8.8-.2,0-.4-.2-.5-.4-.7-.5-1.8-.6-2.6-.2,0,.6.1,1.2.2,1.8h.6c0,.5-.5.8-1,.9s-1,.1-1.4.3c-.4.1-.8.3-1.1.6-.8.5-1.7,1-2.5,1.5-.3-.5-1-.8-1.6-.8s-1.2.5-1.4,1.1c.4.7,0,1.7-.6,2.2s-1.5.6-2.3.5c-1.6-.1-3.1-.9-4.2-2.1-.9-.2-2.2,0-2.8.7,0,.1-.2.3-.3.3h-.4c-.5,0-1-.1-1.5,0s-1,.3-1.3.7c-.2.2-.2.5-.4.8-.6,1.2-1.9,1.9-3.2,1.7"/>
  <path class="st0" d="M65.9-154.4c-.4-.6-1.1-.8-1.8-.7s-1.2.8-1.3,1.4v.5c.2.3.6.4.9.6s.5.7.5,1.1c.2,1,.3,2,.4,3,0,.8,0,1.5-.4,2.2s-1,1.2-1.7,1.3h-1c-.7,0-1.2.6-1.3,1.2s.2,1.3.8,1.6c-1.4,1.6-2.6,3.3-3.6,5.2-.5,0-.9-.3-1-.8-.8-.1-1.5.6-1.6,1.4s.3,1.6.8,2.2c.5.6,1.2,1.2,1.9,1.1.4,0,.9-.2,1.1.2.2.3,0,.7-.3.8s-.6.2-.9.4c-.8.5-.5,1.8-.2,2.7.3.7.5,1.4,1,2s1.3.9,2,.7c-.5.3-.4,1.1,0,1.6s1,.7,1.4,1.1c.5.5.8,1.2,1.2,1.9s1.2,1.1,1.9.9c.7-.2,1.2-1.1,1.8-.8.2,0,.4.2.5.4.7.5,1.8.6,2.6.2,0-.6-.1-1.2-.2-1.8h-.6c0-.5.5-.8,1-.9s1-.1,1.4-.3c.4-.1.8-.3,1.1-.6.8-.5,1.7-1,2.5-1.5.3.5,1,.8,1.6.8s1.2-.5,1.4-1.1c-.4-.7,0-1.7.6-2.2s1.5-.6,2.3-.5c1.6.1,3.1.9,4.2,2.1.9.2,2.2,0,2.8-.7,0-.1.2-.3.3-.3h.4c.5,0,1,.1,1.5,0s1-.3,1.3-.7c.2-.2.2-.5.4-.8.6-1.2,1.9-1.9,3.2-1.7"/>
  <path class="st0" d="M141.3-154.4c.4-.6,1.1-.8,1.8-.7s1.2.8,1.3,1.4v.5c-.2.3-.6.4-.9.6s-.5.7-.5,1.1c-.2,1-.3,2-.4,3,0,.8,0,1.5.4,2.2s1,1.2,1.7,1.3h1c.7,0,1.2.6,1.3,1.2s-.2,1.3-.8,1.6c1.4,1.6,2.6,3.3,3.6,5.2.5,0,.9-.3,1-.8.8-.1,1.5.6,1.6,1.4s-.3,1.6-.8,2.2c-.5.6-1.2,1.2-1.9,1.1-.4,0-.9-.2-1.1.2-.2.3,0,.7.3.8s.6.2.9.4c.8.5.5,1.8.2,2.7-.3.7-.5,1.4-1,2s-1.3.9-2,.7c.5.3.4,1.1,0,1.6s-1,.7-1.4,1.1c-.5.5-.8,1.2-1.2,1.9s-1.2,1.1-1.9.9c-.7-.2-1.2-1.1-1.8-.8-.2,0-.4.2-.5.4-.7.5-1.8.6-2.6.2,0-.6.1-1.2.2-1.8h.6c0-.5-.5-.8-1-.9s-1-.1-1.4-.3c-.4-.1-.8-.3-1.1-.6-.8-.5-1.7-1-2.5-1.5-.3.5-1,.8-1.6.8s-1.2-.5-1.4-1.1c.4-.7,0-1.7-.6-2.2s-1.5-.6-2.3-.5c-1.6.1-3.1.9-4.2,2.1-.9.2-2.2,0-2.8-.7,0-.1-.2-.3-.3-.3h-.4c-.5,0-1,.1-1.5,0s-1-.3-1.3-.7c-.2-.2-.2-.5-.4-.8-.6-1.2-1.9-1.9-3.2-1.7"/>
  <line class="st0" x1="579.8" y1="108" x2="589" y2="98.8"/>
  <line class="st0" x1="567.7" y1="106" x2="576.9" y2="96.8"/>
  <line class="st0" x1="567.3" y1="113.5" x2="587.5" y2="93.3"/>
  <rect class="st0" x="532.4" y="26.4" width="74.5" height="108.5" rx="5" ry="5"/>
  <rect class="st0" x="537" y="30.5" width="65.3" height="99.3" rx="2" ry="2"/>
  <path class="st0" d="M532.7,46.4"/>
  <path class="st0" d="M532,49.5c-.4.6-1.1.8-1.8.7s-1.2-.8-1.3-1.4v-.5c.2-.3.6-.4.9-.6.3-.2.5-.7.5-1.1.2-1,.3-2,.4-3,0-.8,0-1.5-.4-2.2s-1-1.2-1.7-1.3h-1c-.7,0-1.2-.6-1.3-1.2s.2-1.3.8-1.6c-1.4-1.6-2.6-3.3-3.6-5.2-.5,0-.9.3-1,.8-.8,0-1.5-.6-1.6-1.4s.3-1.6.8-2.2,1.2-1.2,1.9-1.1c.4,0,.9.2,1.1-.2.2-.3,0-.7-.3-.8s-.6-.2-.9-.4c-.8-.5-.5-1.8-.2-2.7.3-.7.5-1.4,1-2s1.3-.9,2-.7c-.5-.3-.4-1.1,0-1.6s1-.7,1.4-1.1c.5-.5.8-1.2,1.2-1.9s1.2-1.1,1.9-.9,1.2,1.1,1.8.8c.2,0,.4-.2.5-.4.7-.5,1.8-.6,2.6-.2,0,.6,0,1.2-.2,1.8h-.6c0,.5.5.8,1,.9s1,.1,1.4.3c.4.1.8.3,1.1.6.8.5,1.7,1,2.5,1.5.3-.5,1-.8,1.6-.8s1.2.5,1.4,1.1c-.4.7,0,1.7.6,2.2s1.5.6,2.3.5c1.6-.1,3.1-.9,4.2-2.1.9-.2,2.2,0,2.8.7,0,.1.2.3.3.3h.4c.5,0,1-.1,1.5,0s1,.3,1.3.7c.2.2.2.5.4.8.6,1.2,1.9,1.9,3.2,1.7"/>
  <path class="st0" d="M607.3,49.4c.4.6,1.1.8,1.8.7s1.2-.8,1.3-1.4v-.5c-.2-.3-.6-.4-.9-.6-.3-.2-.5-.7-.5-1.1-.2-1-.3-2-.4-3,0-.8,0-1.5.4-2.2s1-1.2,1.7-1.3h1c.7,0,1.2-.6,1.3-1.2s-.2-1.3-.8-1.6c1.4-1.6,2.6-3.3,3.6-5.2.5,0,.9.3,1,.8.8,0,1.5-.6,1.6-1.4s-.3-1.6-.8-2.2-1.2-1.2-1.9-1.1c-.4,0-.9.2-1.1-.2-.2-.3,0-.7.3-.8s.6-.2.9-.4c.8-.5.5-1.8.2-2.7-.3-.7-.5-1.4-1-2s-1.3-.9-2-.7c.5-.3.4-1.1,0-1.6s-1-.7-1.4-1.1c-.5-.5-.8-1.2-1.2-1.9s-1.2-1.1-1.9-.9-1.2,1.1-1.8.8c-.2,0-.4-.2-.5-.4-.7-.5-1.8-.6-2.6-.2,0,.6,0,1.2.2,1.8h.6c0,.5-.5.8-1,.9s-1,.1-1.4.3c-.4.1-.8.3-1.1.6-.8.5-1.7,1-2.5,1.5-.3-.5-1-.8-1.6-.8s-1.2.5-1.4,1.1c.4.7,0,1.7-.6,2.2s-1.5.6-2.3.5c-1.6-.1-3.1-.9-4.2-2.1-.9-.2-2.2,0-2.8.7,0,.1-.2.3-.3.3h-.4c-.5,0-1-.1-1.5,0s-1,.3-1.3.7c-.2.2-.2.5-.4.8-.6,1.2-1.9,1.9-3.2,1.7"/>
  <path class="st0" d="M532,111.7c-.4-.6-1.1-.8-1.8-.7s-1.2.8-1.3,1.4v.5c.2.3.6.4.9.6.3.2.5.7.5,1.1.2,1,.3,2,.4,3,0,.8,0,1.5-.4,2.2s-1,1.2-1.7,1.3h-1c-.7,0-1.2.6-1.3,1.2s.2,1.3.8,1.6c-1.4,1.6-2.6,3.3-3.6,5.2-.5,0-.9-.3-1-.8-.8-.1-1.5.6-1.6,1.4s.3,1.6.8,2.2c.5.6,1.2,1.2,1.9,1.1.4,0,.9-.2,1.1.2.2.3,0,.7-.3.8s-.6.2-.9.4c-.8.5-.5,1.8-.2,2.7.3.7.5,1.4,1,2s1.3.9,2,.7c-.5.3-.4,1.1,0,1.6s1,.7,1.4,1.1c.5.5.8,1.2,1.2,1.9s1.2,1.1,1.9.9c.7-.2,1.2-1.1,1.8-.8.2,0,.4.2.5.4.7.5,1.8.6,2.6.2,0-.6,0-1.2-.2-1.8h-.6c0-.5.5-.8,1-.9s1-.1,1.4-.3c.4-.1.8-.3,1.1-.6.8-.5,1.7-1,2.5-1.5.3.5,1,.8,1.6.8s1.2-.5,1.4-1.1c-.4-.7,0-1.7.6-2.2s1.5-.6,2.3-.5c1.6.1,3.1.9,4.2,2.1.9.2,2.2,0,2.8-.7,0-.1.2-.3.3-.3h.4c.5,0,1,.1,1.5,0s1-.3,1.3-.7c.2-.2.2-.5.4-.8.6-1.2,1.9-1.9,3.2-1.7"/>
  <path class="st0" d="M607.3,111.7c.4-.6,1.1-.8,1.8-.7s1.2.8,1.3,1.4v.5c-.2.3-.6.4-.9.6-.3.2-.5.7-.5,1.1-.2,1-.3,2-.4,3,0,.8,0,1.5.4,2.2s1,1.2,1.7,1.3h1c.7,0,1.2.6,1.3,1.2s-.2,1.3-.8,1.6c1.4,1.6,2.6,3.3,3.6,5.2.5,0,.9-.3,1-.8.8-.1,1.5.6,1.6,1.4s-.3,1.6-.8,2.2c-.5.6-1.2,1.2-1.9,1.1-.4,0-.9-.2-1.1.2-.2.3,0,.7.3.8s.6.2.9.4c.8.5.5,1.8.2,2.7-.3.7-.5,1.4-1,2s-1.3.9-2,.7c.5.3.4,1.1,0,1.6s-1,.7-1.4,1.1c-.5.5-.8,1.2-1.2,1.9s-1.2,1.1-1.9.9c-.7-.2-1.2-1.1-1.8-.8-.2,0-.4.2-.5.4-.7.5-1.8.6-2.6.2,0-.6,0-1.2.2-1.8h.6c0-.5-.5-.8-1-.9s-1-.1-1.4-.3c-.4-.1-.8-.3-1.1-.6-.8-.5-1.7-1-2.5-1.5-.3.5-1,.8-1.6.8s-1.2-.5-1.4-1.1c.4-.7,0-1.7-.6-2.2s-1.5-.6-2.3-.5c-1.6.1-3.1.9-4.2,2.1-.9.2-2.2,0-2.8-.7,0-.1-.2-.3-.3-.3h-.4c-.5,0-1,.1-1.5,0s-1-.3-1.3-.7c-.2-.2-.2-.5-.4-.8-.6-1.2-1.9-1.9-3.2-1.7"/>
  <line class="st0" x1="723" y1="108" x2="732.2" y2="98.8"/>
  <line class="st0" x1="711" y1="106" x2="720.2" y2="96.8"/>
  <line class="st0" x1="710.5" y1="113.5" x2="730.7" y2="93.3"/>
  <rect class="st0" x="675.7" y="26.4" width="74.5" height="108.5" rx="5" ry="5"/>
  <path class="st0" d="M675.9,46.4"/>
  <path class="st0" d="M675.3,49.5c-.4.6-1.1.8-1.8.7s-1.2-.8-1.3-1.4v-.5c.2-.3.6-.4.9-.6.3-.2.5-.7.5-1.1.2-1,.3-2,.4-3,0-.8,0-1.5-.4-2.2s-1-1.2-1.7-1.3h-1c-.7,0-1.2-.6-1.3-1.2s.2-1.3.8-1.6c-1.4-1.6-2.6-3.3-3.6-5.2-.5,0-.9.3-1,.8-.8,0-1.5-.6-1.6-1.4s.3-1.6.8-2.2,1.2-1.2,1.9-1.1c.4,0,.9.2,1.1-.2.2-.3,0-.7-.3-.8s-.6-.2-.9-.4c-.8-.5-.5-1.8-.2-2.7.3-.7.5-1.4,1-2s1.3-.9,2-.7c-.5-.3-.4-1.1,0-1.6s1-.7,1.4-1.1c.5-.5.8-1.2,1.2-1.9s1.2-1.1,1.9-.9,1.2,1.1,1.8.8c.2,0,.4-.2.5-.4.7-.5,1.8-.6,2.6-.2,0,.6,0,1.2-.2,1.8h-.6c0,.5.5.8,1,.9s1,.1,1.4.3c.4.1.8.3,1.1.6.8.5,1.7,1,2.5,1.5.3-.5,1-.8,1.6-.8s1.2.5,1.4,1.1c-.4.7,0,1.7.6,2.2s1.5.6,2.3.5c1.6-.1,3.1-.9,4.2-2.1.9-.2,2.2,0,2.8.7,0,.1.2.3.3.3h.4c.5,0,1-.1,1.5,0s1,.3,1.3.7c.2.2.2.5.4.8.6,1.2,1.9,1.9,3.2,1.7"/>
  <path class="st0" d="M750.6,49.4c.4.6,1.1.8,1.8.7s1.2-.8,1.3-1.4v-.5c-.2-.3-.6-.4-.9-.6-.3-.2-.5-.7-.5-1.1-.2-1-.3-2-.4-3,0-.8,0-1.5.4-2.2s1-1.2,1.7-1.3h1c.7,0,1.2-.6,1.3-1.2s-.2-1.3-.8-1.6c1.4-1.6,2.6-3.3,3.6-5.2.5,0,.9.3,1,.8.8,0,1.5-.6,1.6-1.4s-.3-1.6-.8-2.2-1.2-1.2-1.9-1.1c-.4,0-.9.2-1.1-.2-.2-.3,0-.7.3-.8s.6-.2.9-.4c.8-.5.5-1.8.2-2.7-.3-.7-.5-1.4-1-2s-1.3-.9-2-.7c.5-.3.4-1.1,0-1.6s-1-.7-1.4-1.1c-.5-.5-.8-1.2-1.2-1.9s-1.2-1.1-1.9-.9-1.2,1.1-1.8.8c-.2,0-.4-.2-.5-.4-.7-.5-1.8-.6-2.6-.2,0,.6,0,1.2.2,1.8h.6c0,.5-.5.8-1,.9s-1,.1-1.4.3c-.4.1-.8.3-1.1.6-.8.5-1.7,1-2.5,1.5-.3-.5-1-.8-1.6-.8s-1.2.5-1.4,1.1c.4.7,0,1.7-.6,2.2s-1.5.6-2.3.5c-1.6-.1-3.1-.9-4.2-2.1-.9-.2-2.2,0-2.8.7,0,.1-.2.3-.3.3h-.4c-.5,0-1-.1-1.5,0s-1,.3-1.3.7c-.2.2-.2.5-.4.8-.6,1.2-1.9,1.9-3.2,1.7"/>
  <path class="st0" d="M675.3,111.7c-.4-.6-1.1-.8-1.8-.7s-1.2.8-1.3,1.4v.5c.2.3.6.4.9.6.3.2.5.7.5,1.1.2,1,.3,2,.4,3,0,.8,0,1.5-.4,2.2s-1,1.2-1.7,1.3h-1c-.7,0-1.2.6-1.3,1.2s.2,1.3.8,1.6c-1.4,1.6-2.6,3.3-3.6,5.2-.5,0-.9-.3-1-.8-.8-.1-1.5.6-1.6,1.4s.3,1.6.8,2.2c.5.6,1.2,1.2,1.9,1.1.4,0,.9-.2,1.1.2.2.3,0,.7-.3.8s-.6.2-.9.4c-.8.5-.5,1.8-.2,2.7.3.7.5,1.4,1,2s1.3.9,2,.7c-.5.3-.4,1.1,0,1.6s1,.7,1.4,1.1c.5.5.8,1.2,1.2,1.9s1.2,1.1,1.9.9c.7-.2,1.2-1.1,1.8-.8.2,0,.4.2.5.4.7.5,1.8.6,2.6.2,0-.6,0-1.2-.2-1.8h-.6c0-.5.5-.8,1-.9s1-.1,1.4-.3c.4-.1.8-.3,1.1-.6.8-.5,1.7-1,2.5-1.5.3.5,1,.8,1.6.8s1.2-.5,1.4-1.1c-.4-.7,0-1.7.6-2.2s1.5-.6,2.3-.5c1.6.1,3.1.9,4.2,2.1.9.2,2.2,0,2.8-.7,0-.1.2-.3.3-.3h.4c.5,0,1,.1,1.5,0s1-.3,1.3-.7c.2-.2.2-.5.4-.8.6-1.2,1.9-1.9,3.2-1.7"/>
  <path class="st0" d="M750.6,111.7c.4-.6,1.1-.8,1.8-.7s1.2.8,1.3,1.4v.5c-.2.3-.6.4-.9.6-.3.2-.5.7-.5,1.1-.2,1-.3,2-.4,3,0,.8,0,1.5.4,2.2s1,1.2,1.7,1.3h1c.7,0,1.2.6,1.3,1.2s-.2,1.3-.8,1.6c1.4,1.6,2.6,3.3,3.6,5.2.5,0,.9-.3,1-.8.8-.1,1.5.6,1.6,1.4s-.3,1.6-.8,2.2c-.5.6-1.2,1.2-1.9,1.1-.4,0-.9-.2-1.1.2-.2.3,0,.7.3.8s.6.2.9.4c.8.5.5,1.8.2,2.7-.3.7-.5,1.4-1,2s-1.3.9-2,.7c.5.3.4,1.1,0,1.6s-1,.7-1.4,1.1c-.5.5-.8,1.2-1.2,1.9s-1.2,1.1-1.9.9c-.7-.2-1.2-1.1-1.8-.8-.2,0-.4.2-.5.4-.7.5-1.8.6-2.6.2,0-.6,0-1.2.2-1.8h.6c0-.5-.5-.8-1-.9s-1-.1-1.4-.3c-.4-.1-.8-.3-1.1-.6-.8-.5-1.7-1-2.5-1.5-.3.5-1,.8-1.6.8s-1.2-.5-1.4-1.1c.4-.7,0-1.7-.6-2.2s-1.5-.6-2.3-.5c-1.6.1-3.1.9-4.2,2.1-.9.2-2.2,0-2.8-.7,0-.1-.2-.3-.3-.3h-.4c-.5,0-1,.1-1.5,0s-1-.3-1.3-.7c-.2-.2-.2-.5-.4-.8-.6-1.2-1.9-1.9-3.2-1.7"/>
  <line class="st0" x1="302.2" y1="108" x2="311.4" y2="98.8"/>
  <line class="st0" x1="290.1" y1="106.1" x2="299.3" y2="96.9"/>
  <line class="st0" x1="289.6" y1="113.6" x2="309.9" y2="93.4"/>
  <polygon class="st0" points="256.8 134.9 256.8 134.9 327.3 134.9 327.3 134.9 327.3 26.4 327.3 26.4 256.8 26.4 256.8 26.4 256.8 134.9"/>
  <path class="st0" d="M255.1,46.4"/>
  <path class="st0" d="M256.4,49.5c-.4.6-1.1.8-1.8.7s-1.2-.8-1.3-1.4v-.5c.2-.3.6-.4.9-.6.3-.2.5-.7.5-1.1.2-1,.3-2,.4-3,0-.8,0-1.5-.4-2.2s-1-1.2-1.7-1.3h-1c-.7,0-1.2-.6-1.3-1.2s.2-1.3.8-1.6c-1.4-1.6-2.6-3.3-3.6-5.2-.5,0-.9.3-1,.8-.8,0-1.5-.6-1.6-1.4s.3-1.6.8-2.2,1.2-1.2,1.9-1.1c.4,0,.9.2,1.1-.2.2-.3,0-.7-.3-.8s-.6-.2-.9-.4c-.8-.5-.5-1.8-.2-2.7.3-.7.5-1.4,1-2s1.3-.9,2-.7c-.5-.3-.4-1.1,0-1.6s1-.7,1.4-1.1c.5-.5.8-1.2,1.2-1.9s1.2-1.1,1.9-.9,1.2,1.1,1.8.8c.2,0,.4-.2.5-.4.7-.5,1.8-.6,2.6-.2,0,.6-.1,1.2-.2,1.8h-.6c0,.5.5.8,1,.9s1,.1,1.4.3c.4.1.8.3,1.1.6.8.5,1.7,1,2.5,1.5.3-.5,1-.8,1.6-.8s1.2.5,1.4,1.1c-.4.7,0,1.7.6,2.2s1.5.6,2.3.5c1.6-.1,3.1-.9,4.2-2.1.9-.2,2.2,0,2.8.7,0,.1.2.3.3.3h.4c.5,0,1-.1,1.5,0s1,.3,1.3.7c.2.2.2.5.4.8.6,1.2,1.9,1.9,3.2,1.7"/>
  <path class="st0" d="M327.7,49.5c.4.6,1.1.8,1.8.7s1.2-.8,1.3-1.4v-.5c-.2-.3-.6-.4-.9-.6-.3-.2-.5-.7-.5-1.1-.2-1-.3-2-.4-3,0-.8,0-1.5.4-2.2s1-1.2,1.7-1.3h1c.7,0,1.2-.6,1.3-1.2s-.2-1.3-.8-1.6c1.4-1.6,2.6-3.3,3.6-5.2.5,0,.9.3,1,.8.8,0,1.5-.6,1.6-1.4s-.3-1.6-.8-2.2-1.2-1.2-1.9-1.1c-.4,0-.9.2-1.1-.2-.2-.3,0-.7.3-.8s.6-.2.9-.4c.8-.5.5-1.8.2-2.7-.3-.7-.5-1.4-1-2s-1.3-.9-2-.7c.5-.3.4-1.1,0-1.6s-1-.7-1.4-1.1c-.5-.5-.8-1.2-1.2-1.9s-1.2-1.1-1.9-.9c-.7.2-1.2,1.1-1.8.8-.2,0-.4-.2-.5-.4-.7-.5-1.8-.6-2.6-.2,0,.6.1,1.2.2,1.8h.6c0,.5-.5.8-1,.9s-1,.1-1.4.3c-.4.1-.8.3-1.1.6-.8.5-1.7,1-2.5,1.5-.3-.5-1-.8-1.6-.8s-1.2.5-1.4,1.1c.4.7,0,1.7-.6,2.2s-1.5.6-2.3.5c-1.6-.1-3.1-.9-4.2-2.1-.9-.2-2.2,0-2.8.7,0,.1-.2.3-.3.3h-.4c-.5,0-1-.1-1.5,0s-1,.3-1.3.7c-.2.2-.2.5-.4.8-.6,1.2-1.9,1.9-3.2,1.7"/>
  <path class="st0" d="M256.4,111.8c-.4-.6-1.1-.8-1.8-.7s-1.2.8-1.3,1.4v.5c.2.3.6.4.9.6.3.2.5.7.5,1.1.2,1,.3,2,.4,3,0,.8,0,1.5-.4,2.2s-1,1.2-1.7,1.3h-1c-.7,0-1.2.6-1.3,1.2s.2,1.3.8,1.6c-1.4,1.6-2.6,3.3-3.6,5.2-.5,0-.9-.3-1-.8-.8-.1-1.5.6-1.6,1.4s.3,1.6.8,2.2c.5.6,1.2,1.2,1.9,1.1.4,0,.9-.2,1.1.2.2.3,0,.7-.3.8s-.6.2-.9.4c-.8.5-.5,1.8-.2,2.7.3.7.5,1.4,1,2s1.3.9,2,.7c-.5.3-.4,1.1,0,1.6s1,.7,1.4,1.1c.5.5.8,1.2,1.2,1.9s1.2,1.1,1.9.9c.7-.2,1.2-1.1,1.8-.8.2,0,.4.2.5.4.7.5,1.8.6,2.6.2,0-.6-.1-1.2-.2-1.8h-.6c0-.5.5-.8,1-.9s1-.1,1.4-.3c.4-.1.8-.3,1.1-.6.8-.5,1.7-1,2.5-1.5.3.5,1,.8,1.6.8s1.2-.5,1.4-1.1c-.4-.7,0-1.7.6-2.2s1.5-.6,2.3-.5c1.6.1,3.1.9,4.2,2.1.9.2,2.2,0,2.8-.7,0-.1.2-.3.3-.3h.4c.5,0,1,.1,1.5,0s1-.3,1.3-.7c.2-.2.2-.5.4-.8.6-1.2,1.9-1.9,3.2-1.7"/>
  <path class="st0" d="M327.7,111.7c.4-.6,1.1-.8,1.8-.7s1.2.8,1.3,1.4v.5c-.2.3-.6.4-.9.6s-.5.7-.5,1.1c-.2,1-.3,2-.4,3,0,.8,0,1.5.4,2.2s1,1.2,1.7,1.3h1c.7,0,1.2.6,1.3,1.2s-.2,1.3-.8,1.6c1.4,1.6,2.6,3.3,3.6,5.2.5,0,.9-.3,1-.8.8-.1,1.5.6,1.6,1.4s-.3,1.6-.8,2.2c-.5.6-1.2,1.2-1.9,1.1-.4,0-.9-.2-1.1.2-.2.3,0,.7.3.8s.6.2.9.4c.8.5.5,1.8.2,2.7-.3.7-.5,1.4-1,2s-1.3.9-2,.7c.5.3.4,1.1,0,1.6s-1,.7-1.4,1.1c-.5.5-.8,1.2-1.2,1.9s-1.2,1.1-1.9.9c-.7-.2-1.2-1.1-1.8-.8-.2,0-.4.2-.5.4-.7.5-1.8.6-2.6.2,0-.6.1-1.2.2-1.8h.6c0-.5-.5-.8-1-.9s-1-.1-1.4-.3c-.4-.1-.8-.3-1.1-.6-.8-.5-1.7-1-2.5-1.5-.3.5-1,.8-1.6.8s-1.2-.5-1.4-1.1c.4-.7,0-1.7-.6-2.2s-1.5-.6-2.3-.5c-1.6.1-3.1.9-4.2,2.1-.9.2-2.2,0-2.8-.7,0-.1-.2-.3-.3-.3h-.4c-.5,0-1,.1-1.5,0s-1-.3-1.3-.7c-.2-.2-.2-.5-.4-.8-.6-1.2-1.9-1.9-3.2-1.7"/>
  <path class="st0" d="M679.3,30.4h20.8c1.6,0,2.8-1.3,2.8-3v-1.2"/>
  <path class="st0" d="M679.3,30.4v15.1c0,1.8-1.5,3.2-3.4,3.2h0"/>
  <path class="st5" d="M678.9,26.9h5.9c-2-.5-4.3-1-6.2-.2-.6.2-1.1.6-1.6,1,1-.2,2-.4,3-.7-1.4.6-2.8,1-4.2,1.3.6-1,1.9-1.4,3.1-1.4s2.4,0,3.5-.6c-1.7.7-3.4,1.4-5.1,2.1-.4.2-.8.3-1.1.6-.6.5-.7,1.3-.8,2.1-.3,2.5,0,5,1,7.4-.2-3.1-.2-6.1,0-9.2-.8,2.6-.8,5.5-.9,8.2v6.3c0,.9,0,1.8.5,2.5-.2-.4-.5-.8-.7-1.3,0,1.1,0,2.2-.4,3.2.7,0,1.3-.7,1.5-1.4s.2-1.4,0-2.1c-.2-2.5-.3-4.9-.5-7.4v1c-1.3-2.6-1.3-5.9.2-8.6,0-.1.2-.3.3-.3s0,.3,0,.3c-.2-.6-.4-1.2-.6-1.8,0-.2,0-.4,0-.5,0-.1.3-.2.4-.2,2.9-.8,5.9-1.1,8.9-.7-.7,0-1.3.2-2,.3-.3-.2.2-.6.6-.6h2.2c0,0,.3,0,.3.1s0,.3-.2.2c1.2-.1,2.4-.5,3.4-1-1.7.6-3.4,1.3-5,2.1,2.2-.1,4.5-.4,6.6-.9-1-.4-2.1-.6-3.2-.6,1.1-.3,2.3-.4,3.5-.3.4,0,.8.2.8.6.4,0,.7-.2.9-.4.7,1.3,1.6.9,2.9.7s3.5-.4,5.2-.2c-1.3.3-2.6.5-3.9.6,1.2,0,2.4-1.6,3.6-.8s.7.6.9,1c0,.1-.2,0-.3,0"/>
  <path class="st5" d="M660,5.2h4.7"/>
  <path class="st5" d="M692.4,26.7c1.6,0,3.3-.4,4.8-1.1-1.8.2-3.4,1-5.1,1.4s-3.7.4-5.1-.7c4.3.4,8.8.8,13-.6l.6.7c0,0-.3-.2-.3-.4.5,0,1.1.3,1.4.7,0,0,.2.2,0,.3s-2.9-1.6-3.5-1.8c-1.9-.4-4.3.5-5.9,1.4h0Z"/>
  <path class="st0" d="M278.2,407.6c0-36,29.2-65.2,65.2-65.2s65.2,29.2,65.2,65.2"/>
  <path class="st0" d="M289.6,412c0-29.7,24.1-53.8,53.8-53.8s53.8,24.1,53.8,53.8"/>
  <g>
    <path class="st0" d="M627.8,417.5c0-6.9-.9-13.9-2.7-20.6l-27.1,7.3c1.2,4.3,1.8,8.8,1.8,13.3h28Z"/>
    <path class="st0" d="M625.1,397c-1.8-6.7-4.5-13.1-7.9-19.1l-24.2,14c2.2,3.9,3.9,8,5.1,12.4"/>
    <path class="st0" d="M617.1,377.9c-3.5-6-7.7-11.5-12.6-16.4l-19.8,19.3c3.2,3.3,6,7.1,8.2,11.1"/>
    <path class="st0" d="M604.5,361.5c-4.9-4.9-10.4-9.1-16.4-12.5l-14,23.8c3.9,2.2,7.5,4.9,10.6,8"/>
    <path class="st0" d="M588.1,349c-6-3.5-12.4-6.2-19.1-8l-7.2,27c4.3,1.1,8.5,2.7,12.4,4.8"/>
    <path class="st0" d="M569,340.9c-6.7-1.8-13.6-2.7-20.5-2.7v28c4.5,0,9,.6,13.3,1.7"/>
    <path class="st0" d="M548.5,338.2c-6.9,0-13.8.9-20.5,2.7l7.2,27c4.3-1.2,8.8-1.7,13.3-1.7"/>
    <path class="st0" d="M527.9,340.9c-6.7,1.8-13.1,4.5-19.1,8l14,23.8c3.9-2.1,8.1-3.7,12.4-4.8"/>
    <path class="st0" d="M508.8,349c-6,3.4-11.5,7.6-16.4,12.5l19.8,19.3c3.2-3.1,6.8-5.8,10.6-8"/>
    <path class="st0" d="M492.4,361.5c-4.9,4.9-9.1,10.4-12.6,16.4l24.2,14c2.2-4.1,5-7.8,8.2-11.1"/>
    <path class="st0" d="M479.8,377.9c-3.5,6-6.1,12.4-7.9,19.1l27.1,7.3c1.1-4.3,2.9-8.5,5.1-12.4"/>
    <path class="st0" d="M471.9,397c-1.8,6.7-2.7,13.6-2.7,20.6h28c0-4.5.6-9,1.8-13.3"/>
  </g>
  <g>
    <path class="st0" d="M227.3,259.8c.9-6.9-.1-13.8-2.7-20.6l-27.1,7.3c-.6,4.2-.1,8.6,1.8,13.3h28Z"/>
    <path class="st0" d="M224.6,239.2c-1.3-5.8-3.7-13.2-7.9-19.1l-24.2,14c.7,4.1,2.3,8.3,5.1,12.4"/>
    <path class="st0" d="M216.7,220.1c-2.8-6.9-6.9-12.6-12.6-16.4l-19.8,19.3c2.5,4.2,5.4,7.7,8.2,11.1"/>
    <path class="st0" d="M204.1,203.7c-4.7-5.5-10.2-9.7-16.4-12.5l-14,23.8c3.5,2.9,7.1,5.6,10.6,8"/>
    <path class="st0" d="M187.7,191.2c-5.6-4.2-12.1-6.8-19.1-8l-7.2,27c3.8,1.7,8,3.2,12.4,4.8"/>
    <path class="st0" d="M168.5,183.2c-6.9-2.7-13.8-3.6-20.5-2.7v28c4.5.6,8.9,1.3,13.3,1.7"/>
    <path class="st0" d="M148,180.5c-6.9-.9-13.8.1-20.5,2.7l7.2,27c4.8.2,9.1-1,13.3-1.7"/>
    <path class="st0" d="M127.5,183.2c-6.9,1.2-13.3,4-19.1,8l14,23.8c4.2-1.5,8.5-2.9,12.4-4.8"/>
    <path class="st0" d="M108.4,191.2c-6.7,2.3-12,6.8-16.4,12.5l19.8,19.3c5.2-2.5,8.3-5.4,10.6-8"/>
    <path class="st0" d="M91.9,203.7c-5.4,4.4-9.5,10-12.6,16.4l24.2,14c3.2-3.4,6.4-6.8,8.2-11.1"/>
    <path class="st0" d="M79.3,220.1c-4.2,6.7-6.6,13.4-7.9,19.1l27.1,7.3c2.3-3.9,4.4-7.9,5.1-12.4"/>
    <path class="st0" d="M71.4,239.2c-2.2,6.6-3.1,13.5-2.7,20.6h28c1.3-4.5,1.8-9,1.8-13.3"/>
  </g>
  <g>
    <path class="st0" d="M224.3,424.3c.9-6.9-.1-13.8-2.7-20.6l-27.1,7.3c-.6,4.2-.1,8.6,1.8,13.3h28Z"/>
    <path class="st0" d="M221.6,403.7c-1.3-5.8-3.7-13.2-7.9-19.1l-24.2,14c.7,4.1,2.3,8.3,5.1,12.4"/>
    <path class="st0" d="M213.7,384.6"/>
    <path class="st0" d="M181.3,387.5"/>
    <path class="st0" d="M184.7,355.7l-14,23.8"/>
    <path class="st0" d="M184.7,355.7c-5.6-4.2-12.1-6.8-19.1-8l-7.2,27c3.8,1.7,8,3.2,12.4,4.8"/>
    <path class="st0" d="M165.5,347.7c-6.9-2.7-13.8-3.6-20.5-2.7v28c4.5.6,8.9,1.3,13.3,1.7"/>
    <path class="st0" d="M145,345c-6.9-.9-13.8.1-20.5,2.7l7.2,27c4.8.2,9.1-1,13.3-1.7"/>
    <path class="st0" d="M124.5,347.7c-6.9,1.2-13.3,4-19.1,8l14,23.8c4.2-1.5,8.5-2.9,12.4-4.8"/>
    <path class="st0" d="M76.3,384.6l24.2,14"/>
    <path class="st0" d="M76.3,384.6c-4.2,6.7-6.6,13.4-7.9,19.1l27.1,7.3c2.3-3.9,4.4-7.9,5.1-12.4"/>
    <path class="st0" d="M68.4,403.7c-2.2,6.6-3.1,13.5-2.7,20.6h28c1.3-4.5,1.8-9,1.8-13.3"/>
  </g>
  <g>
    <path class="st0" d="M213.6,112.7c.9-6.9-.1-13.8-2.7-20.6l-27.1,7.3c-.6,4.2-.1,8.6,1.8,13.3h28Z"/>
    <path class="st0" d="M210.9,92.1c-1.3-5.8-3.7-13.2-7.9-19.1l-24.2,14c.7,4.1,2.3,8.3,5.1,12.4"/>
    <path class="st0" d="M203,73c-2.8-6.9-6.9-12.6-12.6-16.4l-19.8,19.3c2.5,4.2,5.4,7.7,8.2,11.1"/>
    <path class="st0" d="M190.4,56.6c-4.7-5.5-10.2-9.7-16.4-12.5l-14,23.8c3.5,2.9,7.1,5.6,10.6,8"/>
    <path class="st0" d="M174,44.1c-5.6-4.2-12.1-6.8-19.1-8l-7.2,27c3.8,1.7,8,3.2,12.4,4.8"/>
  </g>
  <path class="st0" d="M135.6,63.1"/>
  <path class="st0" d="M142.8,36.1"/>
  <g>
    <path class="st0" d="M119.8,36.1l7.2,27s11.3-3.7,20.7,0"/>
    <path class="st0" d="M154.9,36.1c-20.7-6.6-35.1,0-35.1,0-6.9,1.2-13.3,4-19.1,8l14,23.8c4.2-1.5,8.5-2.9,12.4-4.8"/>
    <path class="st0" d="M100.7,44.1c-6.7,2.3-12,6.8-16.4,12.5l19.8,19.3c5.2-2.5,8.3-5.4,10.6-8"/>
    <path class="st0" d="M84.2,56.6c-5.4,4.4-9.5,10-12.6,16.4l24.2,14c3.2-3.4,6.4-6.8,8.2-11.1"/>
    <path class="st0" d="M71.6,73c-4.2,6.7-6.6,13.4-7.9,19.1l27.1,7.3c2.3-3.9,4.4-7.9,5.1-12.4"/>
    <path class="st0" d="M63.7,92.1c-2.2,6.6-3.1,13.5-2.7,20.6h28c1.3-4.5,1.8-9,1.8-13.3"/>
  </g>
  <path class="st0" d="M146.6,108.7c-2.2,6.6-3.1,13.5-2.7,20.6h28c1.3-4.5,1.8-9,1.8-13.3"/>
  <path class="st0" d="M54.1,320l24.2,14"/>
  <path class="st0" d="M54.1,320c-4.2,6.7-6.6,13.4-7.9,19.1l27.1,7.3c2.3-3.9,4.4-7.9,5.1-12.4"/>
  <path class="st0" d="M46.2,339.1c-2.2,6.6-3.1,13.5-2.7,20.6h28c1.3-4.5,1.8-9,1.8-13.3"/>
  <path class="st0" d="M211.5,411.5c.9-6.9-.1-13.8-2.7-20.6l-27.1,7.3c-.6,4.2-.1,8.6,1.8,13.3h28Z"/>
  <path class="st0" d="M208.8,390.9c-1.3-5.8-3.7-13.2-7.9-19.1l-24.2,14c.7,4.1,2.3,8.3,5.1,12.4"/>
  <path class="st0" d="M200.9,371.8"/>
  <path class="st0" d="M141.9,291.5l-4.1,27.3"/>
  <path class="st0" d="M141.9,291.5c-6.8-1.8-13.8-1.8-20.7-.3l3.4,27.7c4.2.2,8.6,0,13.3-.2"/>
  <path class="st0" d="M121.1,291.2c-7.4,0-14.1,1.8-20,5.1l10.4,26c4.4-1.1,8.7-2.1,13-3.4"/>
  <path class="st0" d="M101,296.3c-6.7,1.7-12.8,5.2-18,10.1l16.7,22.4c4.5-1.6,8.1-4.3,11.7-6.5"/>
  <path class="st0" d="M90.1,337.9c3.3-3,6.8-5.9,9.7-9.1"/>
  <path class="st0" d="M83,306.5c-6,3.7-10.9,8.7-14.7,14.5l21.9,16.9"/>
</svg>