<?xml version="1.0" encoding="UTF-8"?>
<svg id="Layer_2" data-name="Layer 2" xmlns="http://www.w3.org/2000/svg" viewBox="0 0 160 80.64">
  <defs>
    <style>
      .cls-1 {
        fill: none;
        stroke: #fee27a;
        stroke-linecap: round;
        stroke-width: 2;
      }
    </style>
  </defs>
  <g id="Layer_1-2" data-name="Layer 1">
    <g>
      <path class="cls-1" d="M159.2,80.14c.86-6.9-.12-13.82-2.71-20.57l-27.06,7.28c-.6,4.17-.14,8.65,1.77,13.29h27.99Z"/>
      <path class="cls-1" d="M156.49,59.57c-1.31-5.82-3.66-13.15-7.93-19.08l-24.21,13.99c.67,4.1,2.27,8.27,5.08,12.36"/>
      <path class="cls-1" d="M148.56,40.49c-2.78-6.94-6.92-12.59-12.59-16.42l-19.78,19.31c2.46,4.19,5.39,7.7,8.16,11.1"/>
      <path class="cls-1" d="M135.97,24.07c-4.67-5.5-10.19-9.73-16.42-12.5l-13.99,23.79c3.5,2.87,7.09,5.56,10.64,8.02"/>
      <path class="cls-1" d="M119.55,11.57c-5.64-4.22-12.1-6.85-19.13-8.02l-7.23,27.01c3.75,1.69,7.97,3.24,12.36,4.8"/>
      <path class="cls-1" d="M100.42,3.55c-6.88-2.72-13.78-3.62-20.52-2.71v27.99c4.48.63,8.95,1.31,13.29,1.73"/>
      <path class="cls-1" d="M79.9.84c-6.95-.85-13.85.14-20.52,2.71l7.23,27.01c4.84.22,9.06-1.04,13.29-1.73"/>
      <path class="cls-1" d="M59.37,3.55c-6.89,1.21-13.29,3.99-19.13,8.02l13.99,23.79c4.24-1.49,8.5-2.91,12.36-4.8"/>
      <path class="cls-1" d="M40.25,11.57c-6.71,2.26-12.03,6.78-16.42,12.5l19.78,19.31c5.23-2.53,8.31-5.37,10.64-8.02"/>
      <path class="cls-1" d="M23.83,24.07c-5.41,4.35-9.53,10-12.59,16.42l24.21,13.99c3.22-3.35,6.43-6.76,8.16-11.1"/>
      <path class="cls-1" d="M11.23,40.49c-4.24,6.66-6.56,13.44-7.93,19.08l27.06,7.28c2.27-3.94,4.44-7.92,5.08-12.36"/>
      <path class="cls-1" d="M3.3,59.57c-2.21,6.58-3.12,13.5-2.71,20.57h27.99c1.26-4.51,1.83-9,1.77-13.29"/>
    </g>
  </g>
</svg>