<?xml version="1.0" encoding="UTF-8"?>
<svg id="Layer_2" data-name="Layer 2" xmlns="http://www.w3.org/2000/svg" viewBox="0 0 98.53 130.6">
  <defs>
    <style>
      .cls-1 {
        stroke: #fee27a;
        stroke-width: 3px;
      }

      .cls-1, .cls-2 {
        fill: none;
        stroke-linecap: round;
      }

      .cls-3 {
        fill: #fee27a;
      }

      .cls-2 {
        stroke: #fff;
        stroke-width: 3px;
      }
    </style>
  </defs>
  <g id="Layer_1-2" data-name="Layer 1">
    <rect class="cls-3" x="17.62" y="16.75" width="63.3" height="97.4"/>
    <line class="cls-2" x1="59.42" y1="92.75" x2="68.62" y2="83.55"/>
    <line class="cls-2" x1="47.32" y1="90.75" x2="56.52" y2="81.55"/>
    <line class="cls-2" x1="46.82" y1="98.25" x2="67.02" y2="78.05"/>
    <rect class="cls-1" x="12.22" y="11.45" width="73.9" height="107.9"/>
    <path class="cls-1" d="M11.62,34.25c-.4.6-1.1.8-1.8.7s-1.2-.8-1.3-1.4v-.5c.2-.3.6-.4.9-.6.3-.2.5-.7.5-1.1.2-1,.3-2,.4-3,0-.8,0-1.5-.4-2.2s-1-1.2-1.7-1.3h-1c-.7,0-1.2-.6-1.3-1.2s.2-1.3.8-1.6c-1.4-1.6-2.6-3.3-3.6-5.2-.5,0-.9.3-1,.8-.8.1-1.5-.6-1.6-1.4s.3-1.6.8-2.2,1.2-1.2,1.9-1.1c.4,0,.9.2,1.1-.2.2-.3,0-.7-.3-.8s-.6-.2-.9-.4c-.8-.5-.5-1.8-.2-2.7.3-.7.5-1.4,1-2s1.3-.9,2-.7c-.5-.3-.4-1.1,0-1.6s1-.7,1.4-1.1c.5-.5.8-1.2,1.2-1.9s1.2-1.1,1.9-.9c.7.2,1.2,1.1,1.8.8.2,0,.4-.2.5-.4.7-.5,1.8-.6,2.6-.2,0,.6-.1,1.2-.2,1.8h-.6c0,.5.5.8,1,.9s1,.1,1.4.3c.4.1.8.3,1.1.6.8.5,1.7,1,2.5,1.5.3-.5,1-.8,1.6-.8s1.2.5,1.4,1.1c-.4.7,0,1.7.6,2.2s1.5.6,2.3.5c1.6-.1,3.1-.9,4.2-2.1.9-.2,2.2,0,2.8.7,0,.1.2.3.3.3h.4c.5,0,1-.1,1.5,0s1,.3,1.3.7c.2.2.2.5.4.8.6,1.2,1.9,1.9,3.2,1.7"/>
    <path class="cls-1" d="M86.92,34.15c.4.6,1.1.8,1.8.7s1.2-.8,1.3-1.4v-.5c-.2-.3-.6-.4-.9-.6-.3-.2-.5-.7-.5-1.1-.2-1-.3-2-.4-3,0-.8,0-1.5.4-2.2s1-1.2,1.7-1.3h1c.7,0,1.2-.6,1.3-1.2s-.2-1.3-.8-1.6c1.4-1.6,2.6-3.3,3.6-5.2.5,0,.9.3,1,.8.8.1,1.5-.6,1.6-1.4s-.3-1.6-.8-2.2-1.2-1.2-1.9-1.1c-.4,0-.9.2-1.1-.2-.2-.3,0-.7.3-.8s.6-.2.9-.4c.8-.5.5-1.8.2-2.7-.3-.7-.5-1.4-1-2s-1.3-.9-2-.7c.5-.3.4-1.1,0-1.6s-1-.7-1.4-1.1c-.5-.5-.8-1.2-1.2-1.9s-1.2-1.1-1.9-.9c-.7.2-1.2,1.1-1.8.8-.2,0-.4-.2-.5-.4-.7-.5-1.8-.6-2.6-.2,0,.6.1,1.2.2,1.8h.6c0,.5-.5.8-1,.9s-1,.1-1.4.3c-.4.1-.8.3-1.1.6-.8.5-1.7,1-2.5,1.5-.3-.5-1-.8-1.6-.8s-1.2.5-1.4,1.1c.4.7,0,1.7-.6,2.2s-1.5.6-2.3.5c-1.6-.1-3.1-.9-4.2-2.1-.9-.2-2.2,0-2.8.7,0,.1-.2.3-.3.3h-.4c-.5,0-1-.1-1.5,0s-1,.3-1.3.7c-.2.2-.2.5-.4.8-.6,1.2-1.9,1.9-3.2,1.7"/>
    <path class="cls-1" d="M11.62,96.45c-.4-.6-1.1-.8-1.8-.7s-1.2.8-1.3,1.4v.5c.2.3.6.4.9.6s.5.7.5,1.1c.2,1,.3,2,.4,3,0,.8,0,1.5-.4,2.2s-1,1.2-1.7,1.3h-1c-.7,0-1.2.6-1.3,1.2s.2,1.3.8,1.6c-1.4,1.6-2.6,3.3-3.6,5.2-.5,0-.9-.3-1-.8-.8-.1-1.5.6-1.6,1.4s.3,1.6.8,2.2c.5.6,1.2,1.2,1.9,1.1.4,0,.9-.2,1.1.2.2.3,0,.7-.3.8s-.6.2-.9.4c-.8.5-.5,1.8-.2,2.7.3.7.5,1.4,1,2s1.3.9,2,.7c-.5.3-.4,1.1,0,1.6s1,.7,1.4,1.1c.5.5.8,1.2,1.2,1.9s1.2,1.1,1.9.9c.7-.2,1.2-1.1,1.8-.8.2,0,.4.2.5.4.7.5,1.8.6,2.6.2,0-.6-.1-1.2-.2-1.8h-.6c0-.5.5-.8,1-.9s1-.1,1.4-.3c.4-.1.8-.3,1.1-.6.8-.5,1.7-1,2.5-1.5.3.5,1,.8,1.6.8s1.2-.5,1.4-1.1c-.4-.7,0-1.7.6-2.2s1.5-.6,2.3-.5c1.6.1,3.1.9,4.2,2.1.9.2,2.2,0,2.8-.7,0-.1.2-.3.3-.3h.4c.5,0,1,.1,1.5,0s1-.3,1.3-.7c.2-.2.2-.5.4-.8.6-1.2,1.9-1.9,3.2-1.7"/>
    <path class="cls-1" d="M86.92,96.45c.4-.6,1.1-.8,1.8-.7s1.2.8,1.3,1.4v.5c-.2.3-.6.4-.9.6s-.5.7-.5,1.1c-.2,1-.3,2-.4,3,0,.8,0,1.5.4,2.2s1,1.2,1.7,1.3h1c.7,0,1.2.6,1.3,1.2s-.2,1.3-.8,1.6c1.4,1.6,2.6,3.3,3.6,5.2.5,0,.9-.3,1-.8.8-.1,1.5.6,1.6,1.4s-.3,1.6-.8,2.2c-.5.6-1.2,1.2-1.9,1.1-.4,0-.9-.2-1.1.2-.2.3,0,.7.3.8s.6.2.9.4c.8.5.5,1.8.2,2.7-.3.7-.5,1.4-1,2s-1.3.9-2,.7c.5.3.4,1.1,0,1.6s-1,.7-1.4,1.1c-.5.5-.8,1.2-1.2,1.9s-1.2,1.1-1.9.9c-.7-.2-1.2-1.1-1.8-.8-.2,0-.4.2-.5.4-.7.5-1.8.6-2.6.2,0-.6.1-1.2.2-1.8h.6c0-.5-.5-.8-1-.9s-1-.1-1.4-.3c-.4-.1-.8-.3-1.1-.6-.8-.5-1.7-1-2.5-1.5-.3.5-1,.8-1.6.8s-1.2-.5-1.4-1.1c.4-.7,0-1.7-.6-2.2s-1.5-.6-2.3-.5c-1.6.1-3.1.9-4.2,2.1-.9.2-2.2,0-2.8-.7,0-.1-.2-.3-.3-.3h-.4c-.5,0-1,.1-1.5,0s-1-.3-1.3-.7c-.2-.2-.2-.5-.4-.8-.6-1.2-1.9-1.9-3.2-1.7"/>
  </g>
</svg>