<?xml version="1.0" encoding="UTF-8"?>
<svg id="Layer_2" data-name="Layer 2" xmlns="http://www.w3.org/2000/svg" viewBox="0 0 98.45 130.82">
  <defs>
    <style>
      .cls-1 {
        fill: none;
        stroke: #fee27a;
        stroke-linecap: round;
        stroke-width: 2.3;
      }
    </style>
  </defs>
  <g id="Layer_1-2" data-name="Layer 1">
    <line class="cls-1" x1="59.36" y1="92.8" x2="68.54" y2="83.63"/>
    <line class="cls-1" x1="47.3" y1="90.86" x2="56.47" y2="81.68"/>
    <line class="cls-1" x1="46.8" y1="98.36" x2="67.01" y2="78.15"/>
    <rect class="cls-1" x="-4.7" y="28.48" width="107.85" height="73.95" transform="translate(-16.23 114.68) rotate(-90)"/>
    <rect class="cls-1" x=".51" y="33.83" width="97.42" height="63.25" transform="translate(-16.23 114.68) rotate(-90)"/>
    <path class="cls-1" d="M11.58,34.3c-.39.56-1.13.85-1.79.68s-1.19-.76-1.27-1.44c-.02-.16-.01-.33.06-.47.17-.34.64-.4.95-.63.33-.24.45-.66.55-1.06.23-.99.35-2.01.35-3.03,0-.76-.06-1.53-.4-2.21s-.98-1.24-1.73-1.3c-.33-.02-.66.05-.99.01-.65-.07-1.22-.6-1.34-1.25s.23-1.34.81-1.64c-1.41-1.56-2.63-3.29-3.6-5.16-.46-.02-.92.33-1.03.78-.8.14-1.55-.62-1.63-1.43s.31-1.59.81-2.23c.48-.62,1.15-1.2,1.93-1.14.4.03.91.19,1.13-.15.18-.28-.04-.65-.32-.82s-.62-.23-.9-.41c-.79-.55-.55-1.76-.21-2.66.26-.7.53-1.43,1.03-1.99s1.29-.93,2.01-.72c-.48-.35-.36-1.13.03-1.59s.95-.71,1.38-1.13c.53-.52.81-1.25,1.25-1.85s1.19-1.11,1.9-.86c.66.23,1.16,1.05,1.83.85.21-.06.37-.23.55-.36.72-.55,1.77-.62,2.56-.19-.07.61-.14,1.22-.21,1.83-.2.02-.41.04-.61.05.06.48.52.8.98.93s.95.13,1.41.26c.4.12.76.34,1.11.56.83.51,1.65,1.03,2.48,1.54.33-.53.97-.85,1.59-.79s1.2.48,1.43,1.06c-.4.71-.07,1.68.58,2.18s1.52.61,2.34.54c1.6-.13,3.14-.89,4.21-2.09.94-.18,2.21-.07,2.8.68.09.12.17.26.31.33.14.07.3.05.45.03.51-.07,1.03-.14,1.54-.07s1.03.3,1.32.73c.16.23.25.51.37.76.56,1.16,1.93,1.87,3.2,1.65"/>
    <path class="cls-1" d="M86.87,34.27c.39.56,1.13.85,1.79.68s1.19-.76,1.27-1.44c.02-.16.01-.33-.06-.47-.17-.34-.64-.4-.95-.63-.33-.24-.45-.66-.55-1.06-.23-.99-.35-2.01-.35-3.03,0-.76.06-1.53.4-2.21s.98-1.24,1.73-1.3c.33-.02.66.05.99.01.65-.07,1.22-.6,1.34-1.25s-.23-1.34-.81-1.64c1.41-1.56,2.63-3.29,3.6-5.16.46-.02.92.33,1.03.78.8.14,1.55-.62,1.63-1.43s-.31-1.59-.81-2.23c-.48-.62-1.15-1.2-1.93-1.14-.4.03-.91.19-1.13-.15-.18-.28.04-.65.32-.82s.62-.23.9-.41c.79-.55.55-1.76.21-2.66-.26-.7-.53-1.43-1.03-1.99s-1.29-.93-2.01-.72c.48-.35.36-1.13-.03-1.59s-.95-.71-1.38-1.13c-.53-.52-.81-1.25-1.25-1.85s-1.19-1.11-1.9-.86c-.66.23-1.16,1.05-1.83.85-.21-.06-.37-.23-.55-.36-.72-.55-1.77-.62-2.56-.19.07.61.14,1.22.21,1.83.2.02.41.04.61.05-.06.48-.52.8-.98.93s-.95.13-1.41.26c-.4.12-.76.34-1.11.56-.83.51-1.65,1.03-2.48,1.54-.33-.53-.97-.85-1.59-.79s-1.2.48-1.43,1.06c.4.71.07,1.68-.58,2.18s-1.52.61-2.34.54c-1.6-.13-3.14-.89-4.21-2.09-.94-.18-2.21-.07-2.8.68-.09.12-.17.26-.31.33-.14.07-.3.05-.45.03-.51-.07-1.03-.14-1.54-.07s-1.03.3-1.32.73c-.16.23-.25.51-.37.76-.56,1.16-1.93,1.87-3.2,1.65"/>
    <path class="cls-1" d="M11.58,96.56c-.39-.56-1.13-.85-1.79-.68s-1.19.76-1.27,1.44c-.02.16-.01.33.06.47.17.34.64.4.95.63.33.24.45.66.55,1.06.23.99.35,2.01.35,3.03,0,.76-.06,1.53-.4,2.21s-.98,1.24-1.73,1.3c-.33.02-.66-.05-.99-.01-.65.07-1.22.6-1.34,1.25s.23,1.34.81,1.64c-1.41,1.56-2.63,3.29-3.6,5.16-.46.02-.92-.33-1.03-.78-.8-.14-1.55.62-1.63,1.43s.31,1.59.81,2.23c.48.62,1.15,1.2,1.93,1.14.4-.03.91-.19,1.13.15.18.28-.04.65-.32.82s-.62.23-.9.41c-.79.55-.55,1.76-.21,2.66.26.7.53,1.43,1.03,1.99s1.29.93,2.01.72c-.48.35-.36,1.13.03,1.59s.95.71,1.38,1.13c.53.52.81,1.25,1.25,1.85s1.19,1.11,1.9.86c.66-.23,1.16-1.05,1.83-.85.21.06.37.23.55.36.72.55,1.77.62,2.56.19-.07-.61-.14-1.22-.21-1.83-.2-.02-.41-.04-.61-.05.06-.48.52-.8.98-.93s.95-.13,1.41-.26c.4-.12.76-.34,1.11-.56.83-.51,1.65-1.03,2.48-1.54.33.53.97.85,1.59.79s1.2-.48,1.43-1.06c-.4-.71-.07-1.68.58-2.18s1.52-.61,2.34-.54c1.6.13,3.14.89,4.21,2.09.94.18,2.21.07,2.8-.68.09-.12.17-.26.31-.33.14-.07.3-.05.45-.03.51.07,1.03.14,1.54.07s1.03-.3,1.32-.73c.16-.23.25-.51.37-.76.56-1.16,1.93-1.87,3.2-1.65"/>
    <path class="cls-1" d="M86.87,96.53c.39-.56,1.13-.85,1.79-.68s1.19.76,1.27,1.44c.02.16.01.33-.06.47-.17.34-.64.4-.95.63-.33.24-.45.66-.55,1.06-.23.99-.35,2.01-.35,3.03,0,.76.06,1.53.4,2.21s.98,1.24,1.73,1.3c.33.02.66-.05.99-.01.65.07,1.22.6,1.34,1.25s-.23,1.34-.81,1.64c1.41,1.56,2.63,3.29,3.6,5.16.46.02.92-.33,1.03-.78.8-.14,1.55.62,1.63,1.43s-.31,1.59-.81,2.23c-.48.62-1.15,1.2-1.93,1.14-.4-.03-.91-.19-1.13.15-.18.28.04.65.32.82s.62.23.9.41c.79.55.55,1.76.21,2.66-.26.7-.53,1.43-1.03,1.99s-1.29.93-2.01.72c.48.35.36,1.13-.03,1.59s-.95.71-1.38,1.13c-.53.52-.81,1.25-1.25,1.85s-1.19,1.11-1.9.86c-.66-.23-1.16-1.05-1.83-.85-.21.06-.37.23-.55.36-.72.55-1.77.62-2.56.19.07-.61.14-1.22.21-1.83.2-.02.41-.04.61-.05-.06-.48-.52-.8-.98-.93s-.95-.13-1.41-.26c-.4-.12-.76-.34-1.11-.56-.83-.51-1.65-1.03-2.48-1.54-.33.53-.97.85-1.59.79s-1.2-.48-1.43-1.06c.4-.71.07-1.68-.58-2.18s-1.52-.61-2.34-.54c-1.6.13-3.14.89-4.21,2.09-.94.18-2.21.07-2.8-.68-.09-.12-.17-.26-.31-.33-.14-.07-.3-.05-.45-.03-.51.07-1.03.14-1.54.07s-1.03-.3-1.32-.73c-.16-.23-.25-.51-.37-.76-.56-1.16-1.93-1.87-3.2-1.65"/>
  </g>
</svg>