<?xml version="1.0" encoding="UTF-8"?>
<svg id="Layer_2" data-name="Layer 2" xmlns="http://www.w3.org/2000/svg" viewBox="0 0 111.74 102.17">
  <defs>
    <style>
      .cls-1 {
        stroke-linecap: round;
        stroke-width: 3px;
      }

      .cls-1, .cls-2 {
        fill: none;
        stroke: #fee27a;
      }

      .cls-2 {
        stroke-width: 3px;
      }

      .cls-3 {
        fill: #fee27a;
      }
    </style>
  </defs>
  <g id="Layer_1-2" data-name="Layer 1">
    <path class="cls-2" d="M111.2.54c1.4-.9-34.2,14.8-58.8,12.8"/>
    <line class="cls-2" x1="111.2" y1=".64" x2="111.2" y2="101.54"/>
    <line class="cls-2" x1="55.9" y1="13.54" x2="55.9" y2="88.74"/>
    <path class="cls-2" d="M111.2,101.54c1.4.9-34.2-14.8-58.8-12.8"/>
    <path class="cls-2" d="M.6,101.64c-1.4.9,34.2-14.8,58.8-12.8"/>
    <line class="cls-2" x1=".5" y1="101.44" x2=".5" y2=".54"/>
    <path class="cls-2" d="M.6.64C-.8-.26,34.8,15.44,59.4,13.44"/>
    <line class="cls-1" x1="22" y1="69.14" x2="22" y2="36.54"/>
    <line class="cls-1" x1="43.7" y1="58.94" x2="43.7" y2="26.34"/>
    <path class="cls-1" d="M22,36.54l21.8-10.9"/>
    <ellipse class="cls-3" cx="37.17" cy="60.59" rx="6.7" ry="4.5" transform="translate(-18.48 16.37) rotate(-20)"/>
    <ellipse class="cls-3" cx="15.38" cy="70.83" rx="6.7" ry="4.5" transform="translate(-23.3 9.53) rotate(-20)"/>
    <ellipse class="cls-3" cx="93.36" cy="68.78" rx="6.7" ry="4.5" transform="translate(-17.89 36.08) rotate(-20)"/>
    <ellipse class="cls-3" cx="71.69" cy="60.02" rx="6.7" ry="4.5" transform="translate(-16.21 28.14) rotate(-20)"/>
    <line class="cls-2" x1="78.2" y1="58.14" x2="78.2" y2="25.54"/>
    <line class="cls-2" x1="100" y1="67.24" x2="100" y2="34.64"/>
    <path class="cls-1" d="M78.2,25.54l21.8,9.1"/>
  </g>
</svg>