<?xml version="1.0" encoding="UTF-8"?>
<svg id="Layer_2" data-name="Layer 2" xmlns="http://www.w3.org/2000/svg" viewBox="0 0 112.2 102.74">
  <defs>
    <style>
      .cls-1, .cls-2, .cls-3 {
        fill: none;
        stroke: #fee27a;
        stroke-width: 2.4px;
      }

      .cls-2 {
        stroke-linecap: round;
      }

      .cls-3 {
        stroke-miterlimit: 4;
      }
    </style>
  </defs>
  <g id="Layer_1-2" data-name="Layer 1">
    <path class="cls-1" d="M111.41.79c1.39-.94-34.23,14.81-58.76,12.75"/>
    <line class="cls-1" x1="111.45" y1=".98" x2="111.45" y2="101.87"/>
    <line class="cls-1" x1="56.1" y1="13.84" x2="56.1" y2="89.01"/>
    <path class="cls-1" d="M111.41,101.83c1.39.94-34.23-14.81-58.76-12.75"/>
    <path class="cls-1" d="M.79,101.95c-1.39.94,34.23-14.81,58.76-12.75"/>
    <line class="cls-1" x1=".75" y1="101.76" x2=".75" y2=".86"/>
    <path class="cls-1" d="M.79.9C-.6-.03,35.02,15.71,59.55,13.66"/>
    <line class="cls-2" x1="22.17" y1="69.43" x2="22.17" y2="36.79"/>
    <line class="cls-2" x1="43.93" y1="59.27" x2="43.93" y2="26.63"/>
    <path class="cls-2" d="M22.17,36.79l21.76-10.88"/>
    <ellipse class="cls-3" cx="37.41" cy="60.94" rx="6.75" ry="4.5" transform="translate(-18.59 16.47) rotate(-20)"/>
    <ellipse class="cls-3" cx="15.65" cy="71.12" rx="6.75" ry="4.5" transform="translate(-23.38 9.64) rotate(-20)"/>
    <ellipse class="cls-3" cx="93.65" cy="69.07" rx="6.75" ry="4.5" transform="translate(-17.97 36.2) rotate(-20)"/>
    <ellipse class="cls-3" cx="71.89" cy="60.31" rx="6.75" ry="4.5" transform="translate(-16.29 28.23) rotate(-20)"/>
    <line class="cls-1" x1="78.42" y1="58.43" x2="78.42" y2="25.79"/>
    <line class="cls-1" x1="100.18" y1="67.55" x2="100.18" y2="34.92"/>
    <path class="cls-2" d="M78.42,25.79l21.76,9.12"/>
  </g>
</svg>