<?xml version="1.0" encoding="UTF-8"?>
<svg id="Layer_2" data-name="Layer 2" xmlns="http://www.w3.org/2000/svg" viewBox="0 0 201 176.88">
  <defs>
    <style>
      .cls-1 {
        fill: none;
        fill-rule: evenodd;
        stroke: #fff500;
        stroke-miterlimit: 10;
        stroke-width: 2px;
      }
    </style>
  </defs>
  <g id="Layer_1-2" data-name="Layer 1">
    <path class="cls-1" d="M10.46,175.88c-3.38,0-6.5-1.8-8.19-4.73-1.69-2.93-1.69-6.53,0-9.46L92.31,5.73c1.69-2.93,4.82-4.73,8.19-4.73s6.5,1.8,8.19,4.73l90.04,155.95c1.69,2.93,1.69,6.53,0,9.46s-4.81,4.73-8.19,4.73H10.46Z"/>
    <path class="cls-1" d="M114.31,79.03c-3.86,0-7,3.14-7,7s3.14,7,7,7,7-3.14,7-7-3.14-7-7-7ZM82.4,81.91c-1.83,0-3.44,1.23-3.91,3l-3.13,11.5-2.31-1.84c-.32-.25-.72-.36-1.13-.31-.6.08-1.09.51-1.25,1.09-.16.57.03,1.19.5,1.56l3.41,2.72c-.02,1.07.39,2.12,1.16,2.91.27.28.57.52.91.72l-1.87,1.84c-.81.81-1.26,1.92-1.25,3.06l.12,17.84-4.44,16.97c-.45,1.5-.04,3.13,1.06,4.25,1.1,1.12,2.73,1.56,4.25,1.13,1.51-.43,2.65-1.65,3-3.19l4.56-17.47c.1-.37.15-.75.15-1.13l-.09-13.31,10.25,12.56-8.62,16.66c-1.09,2.11-.27,4.72,1.84,5.81s4.72.24,5.81-1.87l9.91-19.19c.78-1.52.58-3.36-.5-4.69l-1.81-2.22c.17-.23.32-.46.44-.72l.03-.03,19.19,15.34c-2.23.32-4.04,2.09-4.63,4.44-.18-.02-.35-.03-.53-.03-2.2,0-4.03,1.9-4.34,4.38l-.75-.03c-3.41,0-6.33,1.95-7.62,4.75h51.84c-1.01-2.88-3.5-4.94-6.44-4.94-.19,0-.38.01-.56.03-.48-1.19-1.46-2-2.59-2-.05,0-.1.03-.15.03.06-.37.09-.75.09-1.13,0-3.16-2.07-5.69-4.63-5.69-.8,0-1.53.25-2.19.69-.65-3.63-3.81-6.26-7.5-6.25-2.96,0-5.67,1.7-6.94,4.38l-20.81-16.69,9.44-17.56c.72-1.32.65-2.94-.19-4.19l-7.69-11.41c-.76-1.12-2.02-1.79-3.38-1.78h-16.72.01ZM85.5,90h4.47l-6.13,6.09,1.66-6.09ZM98.44,104.44l-3.91,7.28-4.5-3.59,8.41-3.69Z"/>
  </g>
</svg>