<?xml version="1.0" encoding="UTF-8"?>
<svg id="Layer_1" xmlns="http://www.w3.org/2000/svg" version="1.1" viewBox="0 0 595.3 841.9">
  <!-- Generator: Adobe Illustrator 29.8.7, SVG Export Plug-In . SVG Version: 2.1.1 Build 1)  -->
  <defs>
    <style>
      .st0 {
        stroke-linecap: round;
      }

      .st0, .st1 {
        fill: none;
      }

      .st0, .st1, .st2 {
        stroke: #fee27a;
      }

      .st2 {
        fill: #fee27a;
        stroke-miterlimit: 4;
        stroke-width: 1px;
      }
    </style>
  </defs>
  <path class="st1" d="M352.6,370c1.4-.9-34.2,14.8-58.8,12.8"/>
  <line class="st1" x1="352.6" y1="370.2" x2="352.6" y2="471.1"/>
  <line class="st1" x1="297.3" y1="383.1" x2="297.3" y2="458.2"/>
  <path class="st1" d="M352.6,471.1c1.4.9-34.2-14.8-58.8-12.8"/>
  <path class="st1" d="M242,471.2c-1.4.9,34.2-14.8,58.8-12.8"/>
  <line class="st1" x1="241.9" y1="471" x2="241.9" y2="370.1"/>
  <path class="st1" d="M242,370.1c-1.4-.9,34.2,14.8,58.8,12.8"/>
  <g>
    <line class="st0" x1="263.4" y1="438.7" x2="263.4" y2="406"/>
    <line class="st0" x1="285.1" y1="428.5" x2="285.1" y2="395.9"/>
    <path class="st0" d="M263.4,406l21.8-10.9"/>
    <ellipse class="st2" cx="278.6" cy="430.2" rx="6.7" ry="4.5" transform="translate(-130.3 121.2) rotate(-20)"/>
    <ellipse class="st2" cx="256.8" cy="440.4" rx="6.7" ry="4.5" transform="translate(-135.1 114.4) rotate(-20)"/>
  </g>
  <g>
    <ellipse class="st2" cx="334.8" cy="438.3" rx="6.7" ry="4.5" transform="translate(-129.7 141) rotate(-20)"/>
    <ellipse class="st2" cx="313.1" cy="429.5" rx="6.7" ry="4.5" transform="translate(-128 133) rotate(-20)"/>
    <line class="st1" x1="319.6" y1="427.7" x2="319.6" y2="395"/>
    <line class="st1" x1="341.4" y1="436.8" x2="341.4" y2="404.2"/>
    <path class="st0" d="M319.6,395l21.8,9.1"/>
  </g>
</svg>