<?xml version="1.0" encoding="UTF-8"?>
<svg id="Layer_2" xmlns="http://www.w3.org/2000/svg" version="1.1" viewBox="0 0 201 176.9">
  <!-- Generator: Adobe Illustrator 30.4.0, SVG Export Plug-In . SVG Version: 2.1.4 Build 226)  -->
  <defs>
    <style>
      .st0 {
        fill: #fff500;
        fill-rule: evenodd;
      }

      .st1 {
        fill: none;
        stroke: #fff500;
        stroke-miterlimit: 10;
        stroke-width: 3px;
      }
    </style>
  </defs>
  <g id="Layer_1-2">
    <path class="st1" d="M10.5,175.9c-3.4,0-6.5-1.8-8.2-4.7-1.7-2.9-1.7-6.5,0-9.5L92.3,5.7c1.7-2.9,4.8-4.7,8.2-4.7s6.5,1.8,8.2,4.7l90,155.9c1.7,2.9,1.7,6.5,0,9.5s-4.8,4.7-8.2,4.7H10.5Z"/>
    <path class="st0" d="M114.3,79c-3.9,0-7,3.1-7,7s3.1,7,7,7,7-3.1,7-7-3.1-7-7-7ZM82.4,81.9c-1.8,0-3.4,1.2-3.9,3l-3.1,11.5-2.3-1.8c-.3-.2-.7-.4-1.1-.3-.6,0-1.1.5-1.2,1.1-.2.6,0,1.2.5,1.6l3.4,2.7c0,1.1.4,2.1,1.2,2.9.3.3.6.5.9.7l-1.9,1.8c-.8.8-1.3,1.9-1.2,3.1v17.8c.1,0-4.3,17-4.3,17-.4,1.5,0,3.1,1.1,4.2s2.7,1.6,4.2,1.1c1.5-.4,2.7-1.6,3-3.2l4.6-17.5c0-.4.2-.8.2-1.1v-13.3c0,0,10.2,12.6,10.2,12.6l-8.6,16.7c-1.1,2.1-.3,4.7,1.8,5.8s4.7.2,5.8-1.9l9.9-19.2c.8-1.5.6-3.4-.5-4.7l-1.8-2.2c.2-.2.3-.5.4-.7h0s19.2,15.3,19.2,15.3c-2.2.3-4,2.1-4.6,4.4-.2,0-.3,0-.5,0-2.2,0-4,1.9-4.3,4.4h-.8c-3.4,0-6.3,1.9-7.6,4.7h51.8c-1-2.9-3.5-4.9-6.4-4.9s-.4,0-.6,0c-.5-1.2-1.5-2-2.6-2s-.1,0-.1,0c0-.4,0-.8,0-1.1,0-3.2-2.1-5.7-4.6-5.7s-1.5.2-2.2.7c-.6-3.6-3.8-6.3-7.5-6.2-3,0-5.7,1.7-6.9,4.4l-20.8-16.7,9.4-17.6c.7-1.3.7-2.9-.2-4.2l-7.7-11.4c-.8-1.1-2-1.8-3.4-1.8h-16.7,0,0ZM85.5,90h4.5l-6.1,6.1s1.7-6.1,1.7-6.1ZM98.4,104.4l-3.9,7.3-4.5-3.6,8.4-3.7Z"/>
  </g>
</svg>