<?xml version="1.0" encoding="UTF-8"?>
<svg id="Layer_1" xmlns="http://www.w3.org/2000/svg" version="1.1" viewBox="0 0 783.3 323.9">
  <!-- Generator: Adobe Illustrator 30.4.0, SVG Export Plug-In . SVG Version: 2.1.4 Build 226)  -->
  <defs>
    <style>
      .st0, .st1, .st2, .st3, .st4 {
        fill: none;
      }

      .st5 {
        fill: #ffe279;
        stroke-miterlimit: 4;
        stroke-width: 1px;
      }

      .st5, .st1, .st3, .st6 {
        stroke: #ffe279;
      }

      .st1 {
        stroke-linecap: round;
      }

      .st2, .st7 {
        stroke: red;
      }

      .st8 {
        fill: #fff500;
      }

      .st8, .st4 {
        fill-rule: evenodd;
      }

      .st7 {
        fill: red;
        stroke-miterlimit: 4;
        stroke-width: 1px;
      }

      .st6 {
        fill: #fff;
      }

      .st4 {
        stroke: #fff500;
        stroke-miterlimit: 10;
        stroke-width: 2px;
      }
    </style>
  </defs>
  <g>
    <rect class="st2" x="391.7" y="355.2" width="149.9" height="55.9"/>
    <rect class="st2" x="166.4" y="411.1" width="149.9" height="55.9"/>
    <rect class="st2" x="316.3" y="411.1" width="149.9" height="55.9"/>
    <rect class="st2" x="466.2" y="411.1" width="149.9" height="55.9"/>
    <rect class="st2" x="241.8" y="355.2" width="149.9" height="55.9"/>
    <rect class="st2" x="91.9" y="355.2" width="149.9" height="55.9"/>
    <rect class="st2" x="541.5" y="355.2" width="149.9" height="55.9"/>
    <rect class="st2" x="166.4" y="299.4" width="149.9" height="55.9"/>
    <rect class="st2" x="316.3" y="299.4" width="149.9" height="55.9"/>
    <rect class="st2" x="466.2" y="299.4" width="149.9" height="55.9"/>
  </g>
  <line class="st2" x1="645.9" y1="299.4" x2="137.4" y2="299.4"/>
  <line class="st2" x1="645.9" y1="467" x2="137.4" y2="467"/>
  <line class="st2" x1="721.7" y1="355.2" x2="61.6" y2="355.2"/>
  <line class="st2" x1="721.7" y1="411.1" x2="61.6" y2="411.1"/>
  <ellipse class="st7" cx="380.5" cy="177.1" rx="13.3" ry="9.5" transform="translate(-16.7 41.4) rotate(-6.1)"/>
  <path class="st2" d="M393.8,174.8v-72.2s3.3,19,20.4,19"/>
  <line class="st0" x1="472.9" y1="80.7" x2="471.2" y2="80.7"/>
  <ellipse class="st7" cx="444" cy="154" rx="13.3" ry="9.5" transform="translate(-13.9 48) rotate(-6.1)"/>
  <path class="st2" d="M457.3,151.8v-72.2s3.3,19,20.4,19"/>
  <line class="st0" x1="536.3" y1="57.6" x2="534.7" y2="57.6"/>
  <path class="st3" d="M655.6,220.5c-26.2,4.4-52.5,8.7-78.7,13.1V76.2c26.2,4.4,52.5,8.7,78.7,13.1v131.2Z"/>
  <path class="st3" d="M655.6,220.5c26.2,4.4,52.5,8.7,78.7,13.1V76.2c-26.2,4.4-52.5,8.7-78.7,13.1v131.2Z"/>
  <line class="st3" x1="655.6" y1="89.3" x2="655.6" y2="220.5"/>
  <ellipse class="st5" cx="596.5" cy="154.9" rx="9.8" ry="6.6" transform="translate(-17 213.4) rotate(-20)"/>
  <ellipse class="st5" cx="622.8" cy="141.8" rx="9.8" ry="6.6" transform="translate(-10.9 221.6) rotate(-20)"/>
  <line class="st3" x1="604.4" y1="154.9" x2="604.4" y2="115.6"/>
  <line class="st3" x1="630.6" y1="141.8" x2="630.6" y2="102.5"/>
  <path class="st3" d="M604.4,115.6l26.2-13.1"/>
  <ellipse class="st5" cx="681.9" cy="135.3" rx="9.8" ry="6.6" transform="translate(-5.1 241.4) rotate(-20)"/>
  <ellipse class="st5" cx="708.1" cy="148.4" rx="9.8" ry="6.6" transform="translate(-8.1 251.1) rotate(-20)"/>
  <line class="st3" x1="689.7" y1="135.3" x2="689.7" y2="95.9"/>
  <line class="st3" x1="715.9" y1="148.4" x2="715.9" y2="109"/>
  <path class="st3" d="M689.7,95.9l26.2,13.1"/>
  <path class="st6" d="M215.7,90.8c1.4-.9-34.2,14.8-58.8,12.8"/>
  <line class="st3" x1="215.8" y1="91" x2="215.8" y2="191.9"/>
  <line class="st3" x1="160.4" y1="103.8" x2="160.4" y2="179"/>
  <path class="st6" d="M215.7,191.8c1.4.9-34.2-14.8-58.8-12.8"/>
  <path class="st6" d="M105.1,191.9c-1.4.9,34.2-14.8,58.8-12.8"/>
  <line class="st3" x1="105.1" y1="191.7" x2="105.1" y2="90.8"/>
  <path class="st6" d="M105.1,90.9c-1.4-.9,34.2,14.8,58.8,12.8"/>
  <line class="st1" x1="126.5" y1="159.4" x2="126.5" y2="126.8"/>
  <line class="st1" x1="148.2" y1="149.2" x2="148.2" y2="116.6"/>
  <path class="st1" d="M126.5,126.8l21.8-10.9"/>
  <ellipse class="st5" cx="141.7" cy="150.9" rx="6.7" ry="4.5" transform="translate(-43.1 57.6) rotate(-20)"/>
  <ellipse class="st5" cx="120" cy="161" rx="6.7" ry="4.5" transform="translate(-47.8 50.7) rotate(-20)"/>
  <ellipse class="st5" cx="197.9" cy="159" rx="6.7" ry="4.5" transform="translate(-42.4 77.3) rotate(-20)"/>
  <ellipse class="st5" cx="176.2" cy="150.3" rx="6.7" ry="4.5" transform="translate(-40.8 69.3) rotate(-20)"/>
  <line class="st3" x1="182.7" y1="148.4" x2="182.7" y2="115.8"/>
  <line class="st3" x1="204.5" y1="157.5" x2="204.5" y2="124.9"/>
  <path class="st1" d="M182.7,115.8l21.8,9.1"/>
  <ellipse class="st5" cx="325.3" cy="196.8" rx="9.8" ry="6.6" transform="translate(-47.7 123.1) rotate(-20)"/>
  <ellipse class="st5" cx="351.5" cy="209.9" rx="9.8" ry="6.6" transform="translate(-50.6 132.9) rotate(-20)"/>
  <line class="st3" x1="333.2" y1="196.8" x2="333.2" y2="157.4"/>
  <line class="st3" x1="359.4" y1="209.9" x2="359.4" y2="170.5"/>
  <path class="st3" d="M333.2,157.4l26.2,13.1"/>
  <path class="st4" d="M1027.1,228.7c-3.4,0-6.5-1.8-8.2-4.7-1.7-2.9-1.7-6.5,0-9.5l90-156c1.7-2.9,4.8-4.7,8.2-4.7s6.5,1.8,8.2,4.7l90,156c1.7,2.9,1.7,6.5,0,9.5s-4.8,4.7-8.2,4.7h-180.1Z"/>
  <path class="st4" d="M1130.9,131.8c-3.9,0-7,3.1-7,7s3.1,7,7,7,7-3.1,7-7-3.1-7-7-7ZM1099,134.7c-1.8,0-3.4,1.2-3.9,3l-3.1,11.5-2.3-1.8c-.3-.3-.7-.4-1.1-.3-.6,0-1.1.5-1.3,1.1-.2.6,0,1.2.5,1.6l3.4,2.7c0,1.1.4,2.1,1.2,2.9.3.3.6.5.9.7l-1.9,1.8c-.8.8-1.3,1.9-1.3,3.1v17.8c.1,0-4.3,17-4.3,17-.5,1.5,0,3.1,1.1,4.2,1.1,1.1,2.7,1.6,4.2,1.1,1.5-.4,2.7-1.7,3-3.2l4.6-17.5c.1-.4.2-.7.2-1.1v-13.3c0,0,10.2,12.6,10.2,12.6l-8.6,16.7c-1.1,2.1-.3,4.7,1.8,5.8s4.7.2,5.8-1.9l9.9-19.2c.8-1.5.6-3.4-.5-4.7l-1.8-2.2c.2-.2.3-.5.4-.7h0s19.2,15.3,19.2,15.3c-2.2.3-4,2.1-4.6,4.4-.2,0-.4,0-.5,0-2.2,0-4,1.9-4.3,4.4h-.7c-3.4,0-6.3,1.9-7.6,4.7h51.8c-1-2.9-3.5-4.9-6.4-4.9-.2,0-.4,0-.6,0-.5-1.2-1.5-2-2.6-2s-.1,0-.2,0c0-.4,0-.7,0-1.1,0-3.2-2.1-5.7-4.6-5.7s-1.5.2-2.2.7c-.7-3.6-3.8-6.3-7.5-6.3-3,0-5.7,1.7-6.9,4.4l-20.8-16.7,9.4-17.6c.7-1.3.6-2.9-.2-4.2l-7.7-11.4c-.8-1.1-2-1.8-3.4-1.8h-16.7,0ZM1102.1,142.8h4.5l-6.1,6.1,1.7-6.1ZM1115,157.2l-3.9,7.3-4.5-3.6,8.4-3.7Z"/>
  <path class="st4" d="M1255.8,228.7c-3.4,0-6.5-1.8-8.2-4.7-1.7-2.9-1.7-6.5,0-9.5l90-156c1.7-2.9,4.8-4.7,8.2-4.7s6.5,1.8,8.2,4.7l90,156c1.7,2.9,1.7,6.5,0,9.5s-4.8,4.7-8.2,4.7h-180.1Z"/>
  <path class="st8" d="M1359.7,131.8c-3.9,0-7,3.1-7,7s3.1,7,7,7,7-3.1,7-7-3.1-7-7-7ZM1327.8,134.7c-1.8,0-3.4,1.2-3.9,3l-3.1,11.5-2.3-1.8c-.3-.3-.7-.4-1.1-.3-.6,0-1.1.5-1.3,1.1-.2.6,0,1.2.5,1.6l3.4,2.7c0,1.1.4,2.1,1.2,2.9.3.3.6.5.9.7l-1.9,1.8c-.8.8-1.3,1.9-1.3,3.1v17.8c.1,0-4.3,17-4.3,17-.5,1.5,0,3.1,1.1,4.2,1.1,1.1,2.7,1.6,4.2,1.1,1.5-.4,2.7-1.7,3-3.2l4.6-17.5c.1-.4.2-.7.2-1.1v-13.3c0,0,10.2,12.6,10.2,12.6l-8.6,16.7c-1.1,2.1-.3,4.7,1.8,5.8s4.7.2,5.8-1.9l9.9-19.2c.8-1.5.6-3.4-.5-4.7l-1.8-2.2c.2-.2.3-.5.4-.7h0s19.2,15.3,19.2,15.3c-2.2.3-4,2.1-4.6,4.4-.2,0-.4,0-.5,0-2.2,0-4,1.9-4.3,4.4h-.7c-3.4,0-6.3,1.9-7.6,4.7h51.8c-1-2.9-3.5-4.9-6.4-4.9-.2,0-.4,0-.6,0-.5-1.2-1.5-2-2.6-2s-.1,0-.2,0c0-.4,0-.7,0-1.1,0-3.2-2.1-5.7-4.6-5.7s-1.5.2-2.2.7c-.7-3.6-3.8-6.3-7.5-6.3-3,0-5.7,1.7-6.9,4.4l-20.8-16.7,9.4-17.6c.7-1.3.6-2.9-.2-4.2l-7.7-11.4c-.8-1.1-2-1.8-3.4-1.8h-16.7,0ZM1330.9,142.8h4.5l-6.1,6.1,1.7-6.1ZM1343.8,157.2l-3.9,7.3-4.5-3.6,8.4-3.7Z"/>
</svg>